<svg version="1.0" id="Layer_1" xmlns="http://www.w3.org/2000/svg" xmlns:xlink="http://www.w3.org/1999/xlink" x="0px" y="0px"
	 viewBox="0 0 72 61.6" style="fill: #fff; width:80px; enable-background:new 0 0 72 61.6;" xml:space="preserve">
	<path d="M67.3,0H43.8c-2.6,0-4.7,2.1-4.7,4.7v15c-1.3-0.1-2.6-0.1-3.9-0.1c-0.4,0-0.9,0-1.3,0V5c0-2.6-2.2-4.8-4.8-4.8H4.8
		C2.2,0.2,0,2.3,0,5v24.2C0,31.9,2.2,34,4.8,34h14.5c2.7,2.3,9.6,3.3,15.9,3.3c7.3,0,15.6-1.4,16.9-4.6h15.2c2.6,0,4.7-2.1,4.7-4.7
		V4.7C72,2.1,69.9,0,67.3,0z M43.8,1.7h23.5c1.6,0,3,1.3,3,3v1.5H40.8V4.7C40.8,3,42.2,1.7,43.8,1.7z M50.6,25c0,1.5-6,3.7-15.4,3.7
		S19.9,26.5,19.9,25c0-1.5,6-3.7,15.4-3.7S50.6,23.5,50.6,25z M13.5,28.7v-4h4.8c0,0.1,0,0.1,0,0.2c0,0,0,0.1,0,0.1c0,0,0,0.1,0,0.1
		c0,1.4,0,2.5,0,3.5H13.5z M11.8,7.8v4H5v-4H11.8z M22,21.5v-2.4h6.8V20C26.2,20.3,23.8,20.8,22,21.5z M19.1,23.1
		C19.1,23.1,19.1,23.1,19.1,23.1l-5.7,0v-4h6.8v3.1C19.8,22.5,19.4,22.8,19.1,23.1z M28.8,17.4H22v-4h6.8V17.4z M20.3,17.4h-6.8v-4
		h6.8V17.4z M11.8,17.4H5v-4h6.8V17.4z M5,19.1h6.8v4H5V19.1z M28.8,11.8H22v-4h6.8V11.8z M20.3,11.8h-6.8v-4h6.8V11.8z M5,24.8h6.8
		v4H5V24.8z M30.5,19.8V7.8h1.8v11.8C31.6,19.7,31,19.7,30.5,19.8z M4.8,1.9h24.3c1.7,0,3.1,1.4,3.1,3.1v1.2H1.7V5
		C1.7,3.3,3.1,1.9,4.8,1.9z M1.7,29.2V7.8h1.6v21.7c0,0.4,0.2,0.7,0.5,0.8c0.1,0.1,0.3,0.1,0.4,0.1h14c0,1.3,0,1.7,0,1.9H4.8
		C3.1,32.3,1.7,30.9,1.7,29.2z M50.6,32.1c-0.5,1.5-6.2,3.6-15.4,3.6c-9.2,0-14.9-2.1-15.4-3.5c0-0.5,0-2.6,0-4.6
		c2.9,1.9,9.2,2.9,15.4,2.9c6.2,0,12.5-1,15.4-2.9l0,4.5C50.6,32,50.6,32,50.6,32.1z M67.3,31.1h-15l0-4.4h5.6
		c0.5,0,0.8-0.4,0.8-0.8S58.4,25,57.9,25h-5.6c0,0,0,0,0,0c0-1.4-1.4-2.6-3.5-3.4c0.2-0.2,0.4-0.4,0.4-0.7c0-0.5-0.4-0.8-0.8-0.8
		l-4.3,0c-0.2,0-0.3,0.1-0.5,0.2c-0.9-0.1-1.8-0.3-2.7-0.4v-12h29.5v20.3C70.3,29.8,69,31.1,67.3,31.1z"/>
	<path d="M66.7,25H62c-0.5,0-0.8,0.4-0.8,0.8s0.4,0.8,0.8,0.8h4.7c0.5,0,0.8-0.4,0.8-0.8S67.2,25,66.7,25z"/>
	<path d="M66.8,19.9l-14.5,0c-0.5,0-0.8,0.4-0.8,0.8c0,0.5,0.4,0.8,0.8,0.8l14.5,0c0.5,0,0.8-0.4,0.8-0.8
		C67.6,20.2,67.2,19.9,66.8,19.9z"/>
	<path d="M66.8,14.9h-8c-0.5,0-0.8,0.4-0.8,0.8s0.4,0.8,0.8,0.8h8c0.5,0,0.8-0.4,0.8-0.8S67.2,14.9,66.8,14.9z"/>
	<path d="M55.7,15.7c0-0.5-0.4-0.8-0.8-0.8H44.1c-0.5,0-0.8,0.4-0.8,0.8s0.4,0.8,0.8,0.8h10.7C55.3,16.6,55.7,16.2,55.7,15.7z"/>
	<path d="M52.9,11.5h13.9c0.5,0,0.8-0.4,0.8-0.8c0-0.5-0.4-0.8-0.8-0.8H52.9c-0.5,0-0.8,0.4-0.8,0.8C52,11.2,52.4,11.5,52.9,11.5z"
		/>
	<path d="M44.1,11.5h5.3c0.5,0,0.8-0.4,0.8-0.8c0-0.5-0.4-0.8-0.8-0.8h-5.3c-0.5,0-0.8,0.4-0.8,0.8C43.3,11.2,43.7,11.5,44.1,11.5z"
		/>
	<path d="M52.2,38.2c0-0.4-0.3-0.8-0.7-0.8c-0.4-0.1-0.8,0.2-0.9,0.6c-0.2,0.6-1.4,1.5-4.3,2.3c-3,0.8-6.9,1.2-11,1.2
		c-4.1,0-8.1-0.4-11-1.2c-3-0.8-4.2-1.8-4.4-2.4c-0.1-0.4-0.5-0.7-0.9-0.6c-0.4,0.1-0.7,0.4-0.7,0.8c0,6.6,0,6.7,0,6.8
		c0.8,3.4,9.4,4.9,17,4.9c7.5,0,15.9-1.5,17-4.8c0.1-0.2,0.1-0.4,0.1-0.7c0-0.1,0-2.2,0-3.9C52.3,39.3,52.2,38.3,52.2,38.2z
		 M50.6,44.6c-0.5,1.5-6.1,3.6-15.4,3.6c-9.2,0-14.8-2.1-15.4-3.5c0-0.4,0-2.4,0-4.2c0.9,0.6,2.2,1.1,3.9,1.6
		c3.1,0.8,7.2,1.3,11.5,1.3c4.3,0,8.4-0.5,11.5-1.3c1.7-0.4,3-1,3.9-1.6c0,0.1,0,0.1,0,0.2c0,1.7,0,3.8,0,3.9
		C50.6,44.4,50.6,44.5,50.6,44.6z"/>
	<path d="M52.2,49.9c0-0.4-0.3-0.8-0.7-0.8c-0.4-0.1-0.8,0.2-0.9,0.6c-0.2,0.6-1.4,1.5-4.3,2.3c-3,0.8-6.9,1.2-11,1.2
		s-8.1-0.4-11-1.2c-3-0.8-4.2-1.8-4.4-2.4c-0.1-0.4-0.5-0.7-0.9-0.6c-0.4,0.1-0.7,0.4-0.7,0.8c0,6.6,0,6.7,0,6.8
		c0.8,3.4,9.4,4.9,17,4.9c7.5,0,15.9-1.5,17-4.8c0.1-0.2,0.1-0.4,0.1-0.7c0-0.1,0-2.2,0-3.9C52.3,51,52.2,50,52.2,49.9z M50.6,56.3
		c-0.5,1.5-6.1,3.6-15.4,3.6c-9.2,0-14.8-2.1-15.4-3.5c0-0.4,0-2.4,0-4.2c0.9,0.6,2.2,1.1,3.9,1.6c3.1,0.8,7.2,1.3,11.5,1.3
		s8.4-0.5,11.5-1.3c1.7-0.4,3-1,3.9-1.6c0,0.1,0,0.1,0,0.2c0,1.7,0,3.8,0,3.9C50.6,56.2,50.6,56.2,50.6,56.3z"/>
</svg>