<svg version="1.0" xmlns="http://www.w3.org/2000/svg" xmlns:xlink="http://www.w3.org/1999/xlink" x="0px" y="0px"
	 viewBox="0 0 72 62" style="fill: #FFFFFF; width:80px; enable-background:new 0 0 72 62;" xml:space="preserve">
	<path d="M72,27.3c0-3.1-2-5.8-4.8-6.8C65.4,10.6,56.6,3.3,46.6,3.3c-1.2,0-2.4,0.1-3.5,0.3c-1.2-2.1-3.4-3.4-5.9-3.6
		c-2.6-0.1-5.2,1.2-6.6,3.4c-1.4-0.7-2.9-1-4.5-1c-5.7,0-10.4,4.7-10.4,10.4C7,13.2,0,20.4,0,29.3c0,9.1,7.4,16.6,16.6,16.6h10.3
		c1.9,2.1,4.7,3.4,7.7,3.4l2.6,0c0.6,1.3,5.2,10.3,20.7,12.7c0.1,0,0.1,0,0.2,0c0.5,0,0.9-0.4,1-0.9c0.1-0.6-0.3-1.1-0.9-1.2
		C45.9,58.1,41,51.7,39.5,49.3l3.9,0c1.3,0,2.5-0.5,3.4-1.4c0.9-0.9,1.4-2.1,1.4-3.3l0-0.6c0.2-4.7,3.4-8.7,7.9-9.9
		c0.6-0.2,0.9-0.7,0.7-1.3c-0.2-0.6-0.7-0.9-1.3-0.7c-5.4,1.5-9.2,6.2-9.4,11.8l0,0.6c0,0.7-0.3,1.4-0.8,1.9
		c-0.5,0.5-1.2,0.8-1.9,0.8l-8.8,0c-3.4,0-6.4-2-7.7-5.1c-0.2-0.5-0.8-0.8-1.4-0.6c-0.5,0.2-0.8,0.8-0.6,1.4
		c0.1,0.3,0.3,0.6,0.4,0.9h-8.8c-8,0-14.5-6.5-14.5-14.5s6.5-14.5,14.5-14.5c0.6,0,1-0.5,1-1c0-0.1,0-0.2-0.1-0.3
		c0.1-0.2,0.2-0.4,0.2-0.6c0-4.6,3.8-8.4,8.4-8.4c1.5,0,3,0.4,4.3,1.2c0,0,0.1,0,0.1,0c0,0,0,0,0.1,0c0,0,0.1,0,0.1,0
		c0.1,0,0.1,0,0.2,0c0,0,0.1,0,0.1,0c0.1,0,0.1,0,0.2,0c0,0,0,0,0,0c0.3-0.1,0.5-0.2,0.6-0.5c0,0,0,0,0,0c0,0,0,0,0,0
		c0,0,0.1-0.1,0.1-0.1c0.9-2,2.9-3.2,5.1-3.1c1.5,0.1,2.9,0.8,3.8,2c-0.2,0.1-0.4,0.1-0.6,0.2c-0.5,0.2-0.8,0.8-0.7,1.3
		c0.2,0.5,0.8,0.8,1.3,0.7c1.8-0.6,3.8-0.9,5.7-0.9C55.4,5.4,63,11.6,65,20c-0.1,0-0.2,0-0.3,0c-0.5,0-1,0.1-1.5,0.2
		c-0.6,0.1-0.9,0.7-0.8,1.2s0.7,0.9,1.2,0.8c0.3-0.1,0.7-0.1,1.1-0.1c0.4,0,0.8,0.1,1.2,0.1c0.1,0,0.1,0,0.2,0.1
		c2.2,0.6,3.9,2.6,3.9,5l-0.1,2.3c-1.9-2.5-4.9-4.2-8.3-4.2c-1.1,0-2.9,0.4-3,0.4c-2.8,0.4-5.6-0.7-7.2-3c-0.3-0.5-1-0.6-1.4-0.2
		c-0.5,0.3-0.6,1-0.2,1.4c2.1,2.9,5.7,4.5,9.3,3.9c0.5-0.1,1.9-0.4,2.6-0.4c4.6,0,8.4,3.8,8.4,8.4s-3.8,8.4-8.4,8.4
		c-0.6,0-1,0.5-1,1c0,0.6,0.5,1,1,1c0.9,0,1.7-0.1,2.5-0.3c-1.4,3.4-5.3,6.2-10.3,5.6c-0.2,0-0.4,0-0.5,0.1
		c-0.3-0.8-0.5-1.6-0.5-2.5c0,0,0,0,0,0c0-0.4,0.1-0.8,0.3-1.2c0.5-1,1.6-1.6,2.8-1.4c0.6,0.1,1.1-0.3,1.2-0.9
		c0.1-0.6-0.3-1.1-0.9-1.2c-2-0.3-4,0.8-4.9,2.6c-0.3,0.7-0.5,1.5-0.5,2.2c0,0,0,0,0,0c0,0,0,0,0,0c0.1,4.2,2.9,7.7,6.8,8.9
		c0.1,0,0.2,0,0.3,0c0.4,0,0.9-0.3,1-0.7c0.2-0.5-0.2-1.1-0.7-1.3c-1.5-0.4-2.7-1.3-3.6-2.4c0.2,0,0.5,0,0.7,0
		c6.1,0,10.5-4.2,11.4-8.6c3.3-1.8,5.5-5.2,5.5-9.2c0-0.6-0.1-1.1-0.1-1.7L72,27.3z"/>
	<path d="M18,22.9c-3.7,0-6.7,3-6.7,6.7s3,6.7,6.7,6.7s6.7-3,6.7-6.7S21.7,22.9,18,22.9z M18,35c-3,0-5.4-2.4-5.4-5.4
		c0-3,2.4-5.4,5.4-5.4s5.4,2.4,5.4,5.4C23.4,32.6,21,35,18,35z"/>
	<path d="M29.5,32.5c0.9,0,1.7-0.8,1.7-1.7v-2.7c0-0.9-0.8-1.7-1.7-1.7l-1.4,0c-0.2-0.7-0.5-1.3-0.8-2l1-1c0.7-0.7,0.7-1.7,0-2.4
		l-1.9-1.9c-0.7-0.7-1.7-0.7-2.4,0l-1,1c-0.6-0.3-1.3-0.6-1.9-0.8v-1.4c0-0.9-0.8-1.7-1.7-1.7h-2.7c-0.9,0-1.7,0.8-1.7,1.7v1.4
		c-0.7,0.2-1.3,0.5-1.9,0.8l-1-1c-0.7-0.7-1.7-0.7-2.4,0L7.7,21c-0.7,0.7-0.7,1.7,0,2.4l1,1c-0.4,0.6-0.6,1.3-0.8,2H6.5
		c-0.9,0-1.7,0.8-1.7,1.7v2.7c0,0.9,0.8,1.7,1.7,1.7l1.3,0c0.2,0.7,0.5,1.4,0.8,2l-0.9,0.9c-0.7,0.7-0.7,1.7,0,2.4l1.9,1.9
		c0.7,0.7,1.7,0.7,2.4,0l0.9-0.9c0.7,0.4,1.3,0.6,2.1,0.9V41c0,0.9,0.8,1.7,1.7,1.7h2.7c0.9,0,1.7-0.8,1.7-1.7v-1.3
		c0.7-0.2,1.4-0.5,2.1-0.9l0.9,0.9c0.7,0.7,1.7,0.7,2.4,0l1.9-1.9c0.7-0.7,0.7-1.7,0-2.4l-0.9-0.9c0.3-0.6,0.6-1.3,0.8-2H29.5z
		 M27.1,31.7c-0.2,0.9-0.6,1.8-1,2.6c-0.1,0.2-0.1,0.6,0.1,0.8l1.3,1.3c0.2,0.2,0.2,0.5,0,0.7l-1.9,1.9c-0.2,0.2-0.5,0.2-0.7,0
		l-1.2-1.2c-0.2-0.2-0.5-0.2-0.8-0.1c-0.8,0.5-1.7,0.9-2.6,1.1c-0.2,0-0.3,0.1-0.4,0.3c-0.1,0.1-0.1,0.2-0.1,0.3V41
		c0,0.3-0.2,0.5-0.5,0.5h-2.7c-0.3,0-0.5-0.2-0.5-0.5v-1.7c0-0.3-0.2-0.5-0.5-0.6c-0.9-0.2-1.8-0.6-2.6-1.1
		c-0.1-0.1-0.2-0.1-0.3-0.1c-0.2,0-0.3,0.1-0.4,0.2l-1.2,1.2c-0.2,0.2-0.5,0.2-0.7,0L8.6,37c-0.2-0.2-0.2-0.5,0-0.7l1.2-1.2
		c0.2-0.2,0.2-0.5,0.1-0.8c-0.5-0.8-0.8-1.7-1.1-2.6c-0.1-0.3-0.3-0.5-0.6-0.5H6.5C6.2,31.2,6,31,6,30.8v-2.7c0-0.3,0.2-0.5,0.5-0.5
		h1.8c0.3,0,0.5-0.2,0.6-0.5c0.2-0.9,0.6-1.7,1.1-2.5c0.1-0.2,0.1-0.6-0.1-0.8l-1.3-1.3c-0.2-0.2-0.2-0.5,0-0.7l1.9-1.9
		c0.2-0.2,0.5-0.2,0.7,0l1.4,1.4c0.2,0.2,0.6,0.2,0.9,0c0,0,0.1-0.1,0.1-0.1c0.7-0.4,1.5-0.7,2.3-0.9c0.1,0,0.2-0.1,0.2-0.1
		c0.1-0.1,0.2-0.3,0.2-0.5v-1.9c0-0.3,0.2-0.5,0.5-0.5h2.7c0.3,0,0.5,0.2,0.5,0.5v1.9c0,0,0,0.1,0,0.1c0,0.2,0.2,0.4,0.5,0.5
		c0.9,0.2,1.7,0.6,2.5,1c0.1,0.1,0.3,0.1,0.5,0.1c0.1,0,0.2-0.1,0.3-0.2l1.3-1.3c0.2-0.2,0.5-0.2,0.7,0l1.9,1.9
		c0.2,0.2,0.2,0.5,0,0.7l-1.3,1.3c-0.2,0.2-0.2,0.5-0.1,0.8c0.5,0.8,0.8,1.6,1.1,2.5c0,0.2,0.3,0.4,0.5,0.5c0,0,0.1,0,0.1,0h1.8
		c0.3,0,0.5,0.2,0.5,0.5v2.7c0,0.3-0.2,0.5-0.5,0.5h-1.8C27.4,31.2,27.2,31.4,27.1,31.7z"/>
	<path d="M39.5,12.8c-1.5-0.2-3,0.2-4.3,1.1c-1.2,0.9-2,2.3-2.2,3.8c-0.4,3.1,1.8,6.1,4.9,6.5c0.3,0,0.5,0.1,0.8,0.1
		c2.8,0,5.3-2.1,5.7-5C44.9,16.1,42.6,13.2,39.5,12.8z M43.2,19.1c-0.2,1.2-0.8,2.3-1.8,3c-1,0.7-2.2,1-3.3,0.9
		c-1.2-0.2-2.3-0.8-3-1.8c-0.7-1-1-2.2-0.9-3.3c0.2-1.2,0.8-2.3,1.8-3c0.8-0.6,1.7-0.9,2.7-0.9c0.2,0,0.4,0,0.6,0
		c1.2,0.2,2.3,0.8,3,1.8C43,16.7,43.4,17.9,43.2,19.1z"/>
	<path d="M48.1,22.3c0.4,0.1,0.8,0,1.1-0.3c0.3-0.2,0.5-0.6,0.6-1l0.3-2.2c0.1-0.4,0-0.8-0.3-1.1c-0.2-0.3-0.6-0.5-1-0.6l-1.1-0.2
		c-0.1-0.6-0.2-1.1-0.4-1.6l0.9-0.7c0.7-0.5,0.8-1.5,0.3-2.2l-1.4-1.8c-0.5-0.7-1.5-0.8-2.2-0.3L44,11c-0.5-0.3-0.9-0.6-1.4-0.8
		L42.7,9c0.1-0.8-0.5-1.6-1.3-1.7L39.2,7C38.8,6.9,38.3,7,38,7.3c-0.3,0.2-0.5,0.6-0.6,1l-0.2,1.1c-0.6,0.1-1.1,0.2-1.6,0.4L35,8.9
		c-0.2-0.3-0.6-0.5-1-0.6c-0.4-0.1-0.8,0-1.1,0.3L31,10c-0.7,0.5-0.8,1.5-0.3,2.2l0.7,0.9c-0.3,0.5-0.6,1-0.9,1.5l-1.1-0.1
		c-0.4-0.1-0.8,0-1.1,0.3c-0.3,0.2-0.5,0.6-0.6,1l-0.3,2.2c-0.1,0.4,0,0.8,0.3,1.1c0.2,0.3,0.6,0.5,1,0.6l1,0.1
		c0.1,0.6,0.2,1.1,0.4,1.7l-0.8,0.6c-0.3,0.2-0.5,0.6-0.6,1c-0.1,0.4,0,0.8,0.3,1.1l1.4,1.8c0.5,0.7,1.5,0.8,2.2,0.3l0.8-0.6
		c0.5,0.3,1,0.7,1.5,0.9l-0.1,1c-0.1,0.8,0.5,1.6,1.3,1.7l2.2,0.3c0.1,0,0.1,0,0.2,0c0.8,0,1.4-0.6,1.5-1.3l0.1-1
		c0.6-0.1,1.2-0.2,1.7-0.5l0.6,0.8c0.5,0.7,1.5,0.8,2.2,0.3l1.8-1.4c0.7-0.5,0.8-1.5,0.3-2.2l-0.6-0.8c0.3-0.5,0.6-1,0.9-1.5
		L48.1,22.3z M46,21.3c-0.3,0.7-0.7,1.4-1.2,2c-0.2,0.2-0.2,0.5,0,0.8l0.9,1.2c0.1,0.1,0.1,0.3-0.1,0.4l-1.8,1.4
		c-0.1,0.1-0.3,0.1-0.4-0.1l-0.9-1.2c-0.2-0.2-0.5-0.3-0.7-0.2c-0.7,0.3-1.5,0.5-2.3,0.6c-0.3,0-0.5,0.2-0.5,0.5l-0.2,1.5
		c0,0.2-0.2,0.3-0.3,0.3l-2.2-0.3c-0.2,0-0.3-0.2-0.3-0.3l0.2-1.5c0-0.3-0.1-0.6-0.4-0.7c-0.7-0.3-1.4-0.7-2-1.2
		c-0.1-0.1-0.3-0.1-0.4-0.1c-0.1,0-0.3,0-0.4,0.1l-1.2,0.9c-0.1,0.1-0.3,0.1-0.4-0.1L30,23.5c-0.1-0.1-0.1-0.2-0.1-0.2
		c0,0,0-0.1,0.1-0.2l1.2-0.9c0.2-0.2,0.3-0.5,0.2-0.7c-0.3-0.7-0.5-1.5-0.6-2.3c0-0.3-0.2-0.5-0.5-0.6l-1.5-0.2
		c-0.1,0-0.2-0.1-0.2-0.1c0,0-0.1-0.1-0.1-0.2l0.3-2.2c0-0.1,0.1-0.2,0.1-0.2c0,0,0.1-0.1,0.2-0.1l1.5,0.2c0.3,0,0.6-0.1,0.7-0.4
		c0.3-0.7,0.7-1.4,1.2-2c0.2-0.2,0.2-0.6,0-0.8l-0.9-1.2c-0.1-0.1-0.1-0.3,0.1-0.4l1.8-1.4c0.1-0.1,0.2-0.1,0.2-0.1
		c0,0,0.1,0,0.2,0.1l1,1.3c0.2,0.3,0.6,0.3,0.9,0.1c0,0,0.1,0,0.1-0.1c0.6-0.2,1.3-0.4,2-0.5c0.1,0,0.2,0,0.2-0.1
		c0.2-0.1,0.3-0.3,0.3-0.5l0.2-1.6c0-0.1,0.1-0.2,0.1-0.2c0,0,0.1-0.1,0.2-0.1l2.2,0.3c0.2,0,0.3,0.2,0.3,0.3l-0.2,1.6
		c0,0,0,0.1,0,0.1c0,0.3,0.2,0.5,0.4,0.6c0.7,0.3,1.4,0.7,2,1.1c0.2,0.2,0.6,0.2,0.8,0l1.3-1c0.1-0.1,0.3-0.1,0.4,0.1l1.4,1.8
		c0.1,0.1,0.1,0.3-0.1,0.4l-1.3,1c-0.2,0.2-0.3,0.5-0.2,0.7c0.3,0.7,0.5,1.4,0.6,2.2c0,0.3,0.2,0.5,0.4,0.6c0,0,0.1,0,0.1,0l1.6,0.2
		c0.1,0,0.2,0.1,0.2,0.1c0,0,0.1,0.1,0.1,0.2l-0.3,2.2c0,0.1-0.1,0.2-0.1,0.2c0,0-0.1,0.1-0.2,0.1l-1.5-0.2
		C46.4,20.9,46.1,21,46,21.3z"/>
	<path d="M37.2,33.4c-2.1-0.3-4.1,1.2-4.4,3.3v0c-0.3,2.1,1.2,4.1,3.3,4.4c0.2,0,0.4,0,0.5,0c1.9,0,3.6-1.4,3.9-3.4
		C40.8,35.7,39.3,33.7,37.2,33.4z M39.3,37.6c-0.2,1.4-1.5,2.5-3,2.3c-1.4-0.2-2.5-1.5-2.3-3c0.2-1.4,1.5-2.5,3-2.3
		C38.5,34.8,39.5,36.2,39.3,37.6z"/>
	<path d="M42.6,39.9c0.7,0.1,1.3-0.4,1.4-1l0.2-1.4c0.1-0.7-0.4-1.3-1-1.4l-0.5-0.1c-0.1-0.3-0.1-0.5-0.2-0.8l0.4-0.3
		c0.5-0.4,0.6-1.2,0.2-1.7l-0.9-1.1c-0.2-0.3-0.5-0.4-0.8-0.5c-0.3,0-0.6,0-0.9,0.2L40,32.2c-0.2-0.1-0.4-0.3-0.7-0.4l0.1-0.6
		c0.1-0.7-0.4-1.3-1-1.4L37,29.7c-0.7-0.1-1.3,0.4-1.4,1l-0.1,0.6c-0.3,0-0.5,0.1-0.7,0.2l-0.3-0.5c-0.4-0.5-1.2-0.6-1.7-0.2
		l-1.1,0.9c-0.5,0.4-0.6,1.2-0.2,1.7l0.3,0.4c-0.2,0.2-0.3,0.5-0.4,0.7l-0.5-0.1c-0.6-0.1-1.3,0.4-1.4,1l-0.2,1.4
		c0,0.3,0,0.6,0.2,0.9c0.2,0.3,0.5,0.4,0.8,0.5l0.5,0.1c0,0.3,0.1,0.5,0.2,0.8l-0.4,0.3c-0.5,0.4-0.6,1.2-0.2,1.7l0.9,1.1
		c0.2,0.3,0.5,0.4,0.8,0.5c0.3,0,0.6,0,0.9-0.2l0.4-0.3c0.2,0.2,0.5,0.3,0.7,0.4l-0.1,0.5c0,0.3,0,0.6,0.2,0.9
		c0.2,0.3,0.5,0.4,0.8,0.5l1.4,0.2c0.1,0,0.1,0,0.2,0c0.6,0,1.1-0.4,1.2-1l0.1-0.5c0.3-0.1,0.5-0.1,0.8-0.2l0.3,0.4
		c0.4,0.5,1.2,0.6,1.7,0.2l1.1-0.9c0.5-0.4,0.6-1.2,0.2-1.7l-0.3-0.4c0.2-0.2,0.3-0.5,0.4-0.7L42.6,39.9z M41.1,39
		c-0.2,0.4-0.4,0.9-0.7,1.2c-0.2,0.2-0.2,0.5,0,0.8l0.6,0.7l-1.1,0.9l-0.6-0.8c-0.2-0.2-0.5-0.3-0.7-0.2c-0.4,0.2-0.9,0.3-1.4,0.4
		c-0.3,0-0.5,0.2-0.5,0.5l-0.1,0.9l-1.4-0.2l0.1-0.9c0-0.3-0.1-0.6-0.4-0.7c-0.4-0.2-0.9-0.4-1.2-0.7c-0.1-0.1-0.3-0.1-0.4-0.1
		c-0.1,0-0.3,0-0.4,0.1l-0.7,0.6l-0.9-1.1l0.8-0.6c0.2-0.2,0.3-0.5,0.2-0.7c-0.2-0.4-0.3-0.9-0.4-1.4c0-0.3-0.2-0.5-0.5-0.6L30.4,37
		l0.2-1.4l1,0.1c0.2,0,0.5-0.2,0.7-0.4c0.2-0.4,0.4-0.8,0.7-1.2c0.2-0.2,0.2-0.6,0-0.8l-0.6-0.7l1.1-0.9l0.6,0.8
		c0.2,0.3,0.6,0.3,0.9,0.1c0,0,0,0,0,0c0.4-0.1,0.8-0.2,1.1-0.3c0.1,0,0.2,0,0.3-0.1c0.2-0.1,0.3-0.3,0.3-0.5l0.1-1l1.4,0.2
		l-0.1,1.1c0,0.3,0.2,0.5,0.4,0.6c0.4,0.2,0.8,0.4,1.2,0.7c0.2,0.2,0.6,0.2,0.8,0l0.7-0.6l0.9,1.1l-0.8,0.6
		c-0.2,0.2-0.3,0.5-0.2,0.7c0.2,0.4,0.3,0.9,0.4,1.3c0,0.3,0.2,0.5,0.4,0.6c0,0,0.1,0,0.1,0l1,0.1l-0.2,1.4l-1-0.1
		C41.5,38.5,41.2,38.7,41.1,39z"/>
</svg>