<svg version="1.1" xmlns="http://www.w3.org/2000/svg" xmlns:xlink="http://www.w3.org/1999/xlink" x="0px" y="0px"
	 viewBox="0 0 360 360" style="fill: #FFFFFF; width:100px; enable-background:new 0 0 360 360" xml:space="preserve">
<path d="M332.915,150.989c-12.689,0-23.363,8.773-26.288,20.57l-98.382-73.794c0.024-0.462,0.036-0.928,0.036-1.396
	c0-14.934-12.15-27.085-27.085-27.085c-14.807,0-26.871,11.946-27.075,26.705L53.818,131.993
	c-2.081-12.881-13.275-22.75-26.734-22.75C12.15,109.243,0,121.393,0,136.327s12.15,27.085,27.085,27.085
	c11.341,0,21.071-7.01,25.099-16.922l29.158,32.665l-29.027,31.879c-3.944-10.087-13.763-17.254-25.23-17.254
	C12.15,193.779,0,205.929,0,220.864c0,14.934,12.15,27.085,27.085,27.085c13.408,0,24.566-9.796,26.708-22.606l100.326,38.544
	c0.138,14.817,12.229,26.829,27.078,26.829c14.934,0,27.085-12.149,27.085-27.084c0-0.492-0.015-0.981-0.041-1.467l98.859-75.901
	c3.48,10.943,13.735,18.895,25.816,18.895c14.934,0,27.085-12.15,27.085-27.085S347.85,150.989,332.915,150.989z M304.694,175.797
	h-96.516c-1.161-13.873-12.815-24.808-26.982-24.808c-13.427,0-24.597,9.823-26.717,22.658l-46.193-17.323l47.105-51.733
	c3.49,10.926,13.736,18.862,25.805,18.862c12.689,0,23.363-8.773,26.288-20.571L304.694,175.797z M196.902,178.073
	c0,8.661-7.045,15.706-15.706,15.706s-15.706-7.045-15.706-15.706c0-8.66,7.045-15.706,15.706-15.706
	S196.902,169.413,196.902,178.073z M153.338,178.08l-50.005,18.876L87.47,179.185l17.517-19.237L153.338,178.08z M181.196,80.663
	c8.661,0,15.706,7.045,15.706,15.706s-7.045,15.706-15.706,15.706s-15.706-7.045-15.706-15.706S172.536,80.663,181.196,80.663z
	 M151.958,101.602l-48.261,53.002l-48.612-18.23L151.958,101.602z M27.085,152.033c-8.661,0-15.706-7.045-15.706-15.706
	c0-8.66,7.045-15.706,15.706-15.706s15.706,7.045,15.706,15.706C42.791,144.988,35.745,152.033,27.085,152.033z M53.695,141.348
	c0.037-0.198,0.074-0.396,0.107-0.595l46.596,17.474l-15.975,17.544L53.695,141.348z M84.389,182.568l14.38,16.11l-44.264,16.709
	L84.389,182.568z M27.085,236.57c-8.661,0-15.706-7.045-15.706-15.706c0-8.661,7.045-15.706,15.706-15.706
	s15.706,7.045,15.706,15.706C42.791,229.524,35.745,236.57,27.085,236.57z M54.163,220.609c-0.001-0.076-0.004-0.151-0.006-0.226
	l47.861-18.066l49.828,55.821L54.163,220.609z M181.196,279.337c-8.661,0-15.706-7.045-15.706-15.705
	c0-8.661,7.045-15.706,15.706-15.706s15.706,7.045,15.706,15.706C196.902,272.292,189.857,279.337,181.196,279.337z
	 M207.462,257.024c-2.958-11.75-13.611-20.476-26.266-20.476c-12.032,0-22.252,7.889-25.772,18.765l-48.843-54.718l47.901-18.082
	c2.126,12.829,13.293,22.645,26.715,22.645c14.167,0,25.822-10.937,26.982-24.809h97.755c0.028,0.333,0.062,0.665,0.102,0.995
	L207.462,257.024z M332.915,193.779c-8.661,0-15.706-7.045-15.706-15.706c0-8.66,7.045-15.706,15.706-15.706
	c8.661,0,15.706,7.045,15.706,15.706C348.621,186.734,341.576,193.779,332.915,193.779z"/>
</svg>