<svg xmlns="http://www.w3.org/2000/svg" width="25.953" height="33.997" viewBox="0 0 25.953 33.997"><defs><style>.a{fill:#1a4280;}</style></defs><g transform="translate(-60.575)"><g transform="translate(60.575)"><g transform="translate(0)"><path class="a" d="M82.63,13.475h0a1.981,1.981,0,1,0,0-1H75.484l-.008-.036,6.188-3.573a1.989,1.989,0,0,0,1.413.59A1.981,1.981,0,1,0,81.164,8L75,11.562l-.037-.038,1.1-1.9a.5.5,0,1,0-.864-.5l-1.087,1.883-.061-.017V3.9a1.981,1.981,0,1,0-1,0v7.094l-.061.017L69.444,4.865a1.974,1.974,0,1,0-1.387.571,1.955,1.955,0,0,0,.523-.072l3.557,6.16-.037.038L65.939,8.005a1.982,1.982,0,1,0-.5.864l6.188,3.573-.008.036H64.473a1.981,1.981,0,1,0,0,1h7.181l0,.018L65.44,17.084a1.981,1.981,0,1,0,.5.864l5.875-3.392a1.755,1.755,0,0,0-.02.263v.205L68.58,20.589a1.981,1.981,0,1,0-.53,3.892,1.994,1.994,0,0,0,.516-.068,1.968,1.968,0,0,0,1.2-.923,2,2,0,0,0,.186-.433,15.074,15.074,0,0,1,2.169,3.92,5.475,5.475,0,0,0,2.335,2.749l-.28,3.735a.5.5,0,0,0,.5.536h5.544a.5.5,0,0,0,.5-.536l-.279-3.736a5.492,5.492,0,0,0,2.444-3.068.5.5,0,1,0-.954-.293A4.51,4.51,0,0,1,79.688,29a.5.5,0,0,0-.267.48L79.684,33H75.215l.263-3.517a.5.5,0,0,0-.267-.48,4.505,4.505,0,0,1-2.154-2.38A15.967,15.967,0,0,0,70.6,22.258l-.158-.2a.71.71,0,0,1,.126-.872.678.678,0,0,1,.856-.116,1.1,1.1,0,0,1,.425.455.5.5,0,0,0,.941-.23l0-6.479a.783.783,0,0,1,.258-.578.773.773,0,0,1,.6-.2.8.8,0,0,1,.7.806v6.337a.5.5,0,1,0,1,0V19.192a.821.821,0,0,1,.819-.781.782.782,0,0,1,.781.781v1.994a.5.5,0,1,0,1,0V19.21c0-.006,0-.012,0-.018a.781.781,0,0,1,1.552-.118l.006,2.112a.5.5,0,1,0,1,0V19.924a.756.756,0,0,1,.758-.654h.085a.753.753,0,0,1,.764.739V23.1a.5.5,0,1,0,1,0V20.455a2,2,0,0,0,.478-.067,1.981,1.981,0,1,0-1.923-3.3l-6.219-3.591,0-.018H82.63Zm1.917-1.482a.983.983,0,1,1-.983.983A.984.984,0,0,1,84.547,11.994ZM82.582,6.627a.977.977,0,0,1,.49-.132.987.987,0,0,1,.256.034.983.983,0,1,1-.746.1ZM68.545,4.305a.983.983,0,1,1-.493-1.834.987.987,0,0,1,.256.034.983.983,0,0,1,.237,1.8ZM64.88,7.97a.983.983,0,1,1-1.106-1.441A.983.983,0,0,1,64.88,7.97Zm-2.324,5.989a.983.983,0,1,1,.983-.983A.984.984,0,0,1,62.556,13.959Zm1.965,5.366a.983.983,0,1,1,.36-1.343A.976.976,0,0,1,64.52,19.325ZM68.9,22.99a.983.983,0,1,1,.1-.746A.977.977,0,0,1,68.9,22.99Zm.552-1.889-.013-.013.078-.134Q69.486,21.026,69.457,21.1Zm2.333-.961a1.676,1.676,0,0,0-1.935.348,1.813,1.813,0,0,0-.23.287l2.167-3.754Zm.778-18.16a.983.983,0,1,1,.983.983A.984.984,0,0,1,72.569,1.981Zm1.893,11.3a1.753,1.753,0,0,0-.715-.23,1.783,1.783,0,0,0-1.1.251.974.974,0,0,1-.082-.391.983.983,0,1,1,1.966,0A.97.97,0,0,1,74.461,13.278Zm7.761,4.7a.983.983,0,1,1,1.106,1.441.973.973,0,0,1-.312.031,1.754,1.754,0,0,0-.922-1.018A.967.967,0,0,1,82.223,17.983Zm-6.872-.372v-.52l.242.418A1.835,1.835,0,0,0,75.351,17.611Zm5.813.337a1.933,1.933,0,0,0-.06.332,1.766,1.766,0,0,0-.731.231,1.778,1.778,0,0,0-2.923-.553,1.782,1.782,0,0,0-.705-.449L75.351,15.1v-.247a1.885,1.885,0,0,0-.019-.268Z" transform="translate(-60.575)"/></g></g><g transform="translate(76.885 1.472)"><path class="a" d="M310.281,23.642a1.981,1.981,0,1,0-3.3,1.923l-.707,1.224a.5.5,0,1,0,.864.5l.707-1.224a1.955,1.955,0,0,0,.523.072,1.994,1.994,0,0,0,.516-.068,1.981,1.981,0,0,0,1.4-2.426Zm-1.062,1a.983.983,0,1,1-1.105-1.441.991.991,0,0,1,.256-.034.983.983,0,0,1,.85,1.475Z" transform="translate(-306.203 -22.173)"/></g></g></svg>