<svg xmlns="http://www.w3.org/2000/svg" width="24.513" height="28.006" viewBox="0 0 24.513 28.006"><defs><style>.a{fill:#1a4280;}</style></defs><g transform="translate(-82.104 -140)"><path class="a" d="M93.258,140h2.188c.125.017.25.045.376.051a24.2,24.2,0,0,1,4.542.616,12.55,12.55,0,0,1,4.181,1.687,4.284,4.284,0,0,1,2.072,3.842c-.047,5.314-.022,10.629-.013,15.943a3.751,3.751,0,0,1-1.171,2.788,8.185,8.185,0,0,1-2.9,1.751,20.9,20.9,0,0,1-5.752,1.215l-1.331.113H93.258c-.143-.018-.287-.046-.431-.053a23.814,23.814,0,0,1-5.122-.776,11,11,0,0,1-3.878-1.766,3.881,3.881,0,0,1-1.724-3.19q.005-8.218,0-16.437a3.6,3.6,0,0,1,.924-2.447,7.175,7.175,0,0,1,2.642-1.8,20,20,0,0,1,6.2-1.42C92.334,140.073,92.8,140.038,93.258,140Zm1.083,9.578c.592,0,1.186.028,1.776-.005a19.972,19.972,0,0,0,5.225-.939,7.316,7.316,0,0,0,2.792-1.5,1.773,1.773,0,0,0-.012-2.883,6.382,6.382,0,0,0-1.449-.96,17.586,17.586,0,0,0-6.48-1.485,26.4,26.4,0,0,0-4.315.05,19.109,19.109,0,0,0-4.98,1.052,6.661,6.661,0,0,0-2.35,1.357,1.794,1.794,0,0,0,0,2.857c.066.063.134.123.2.181a7.9,7.9,0,0,0,2.636,1.345A21.018,21.018,0,0,0,94.341,149.578Zm10.513,4.221a8.592,8.592,0,0,1-3.432,1.849,22.677,22.677,0,0,1-5.806.938,25.63,25.63,0,0,1-7.64-.735,10.378,10.378,0,0,1-3.417-1.472c-.235-.165-.452-.354-.717-.564v.3c0,.939.012,1.878,0,2.816a1.954,1.954,0,0,0,.534,1.389,4.992,4.992,0,0,0,1.644,1.154,18.125,18.125,0,0,0,6.513,1.474,26.534,26.534,0,0,0,4.831-.1,18.5,18.5,0,0,0,4.464-1,6.668,6.668,0,0,0,2.349-1.358,1.809,1.809,0,0,0,.672-1.216C104.877,156.14,104.855,155,104.855,153.8Zm-21.012,5.242c0,1.064.021,2.048-.007,3.031a1.988,1.988,0,0,0,.745,1.684,7.551,7.551,0,0,0,1.451.959,17.581,17.581,0,0,0,6.48,1.486,26.337,26.337,0,0,0,4.831-.1,18.51,18.51,0,0,0,4.463-1,6.744,6.744,0,0,0,2.33-1.338,1.911,1.911,0,0,0,.718-1.338c.022-1.093,0-2.187,0-3.28,0-.012-.021-.024-.046-.053a7.033,7.033,0,0,1-2.153,1.357,20.164,20.164,0,0,1-6.571,1.37,27.273,27.273,0,0,1-5.617-.216,17.2,17.2,0,0,1-4.5-1.187A7.191,7.191,0,0,1,83.842,159.042Zm21.016-10.205a.552.552,0,0,0-.1.038,11.516,11.516,0,0,1-4.01,1.736,27.053,27.053,0,0,1-11.975.193,12.541,12.541,0,0,1-4.855-1.949c-.011-.007-.033,0-.071.007,0,.935.013,1.872,0,2.809A1.98,1.98,0,0,0,84.4,153.1a5.036,5.036,0,0,0,1.6,1.118,18.126,18.126,0,0,0,6.512,1.479,26.341,26.341,0,0,0,4.912-.11,17.806,17.806,0,0,0,4.637-1.088,6.077,6.077,0,0,0,2.212-1.37,1.747,1.747,0,0,0,.573-1.149C104.874,150.945,104.858,149.907,104.858,148.836Z" transform="translate(0)"/><path class="a" d="M435.047,445.872a.868.868,0,1,1,.87-.866A.876.876,0,0,1,435.047,445.872Z" transform="translate(-332.82 -287.501)"/><path class="a" d="M435.917,541.012a.868.868,0,1,1-.86-.876A.878.878,0,0,1,435.917,541.012Z" transform="translate(-332.819 -378.249)"/><path class="a" d="M435.918,349.007a.868.868,0,1,1-.865-.871A.877.877,0,0,1,435.918,349.007Z" transform="translate(-332.82 -196.752)"/></g></svg>