<svg xmlns="http://www.w3.org/2000/svg" width="31.066" height="31.071" viewBox="0 0 31.066 31.071"><defs><style>.a{fill:#1a4280;}</style></defs><g transform="translate(-110.827 -278.89)"><path class="a" d="M413.912,400.233a.754.754,0,0,1-.715.353c-1.425-.008-2.85,0-4.276,0-.533,0-.7-.176-.712-.709a9.994,9.994,0,0,0-1.216-4.577,1.046,1.046,0,0,1-.152-.505c.014-.285.263-.443.621-.444,1.051,0,2.1,0,3.154,0a.591.591,0,0,0,.5-.2,1.017,1.017,0,0,1,1.464-.013,1.035,1.035,0,0,1,0,1.47,1,1,0,0,1-1.461-.016.587.587,0,0,0-.5-.206c-.778.009-1.555,0-2.351,0,.225.684.482,1.337.651,2.013s.251,1.384.378,2.118h1.387c.839,0,1.678.008,2.517,0a.75.75,0,0,1,.715.353Z" transform="translate(-272.019 -105.626)"/><path class="a" d="M272.716,595.366a.775.775,0,0,1-.354-.746c.01-1.193,0-2.386,0-3.58,0-.109,0-.218,0-.325-.538-.072-1.047-.135-1.554-.211a.536.536,0,0,1-.513-.593.52.52,0,0,1,.645-.437c.632.063,1.264.171,1.9.176.6,0,1.2-.1,1.807-.153.07-.007.14-.018.211-.022a.52.52,0,1,1,.134,1.029c-.439.068-.88.116-1.32.173l-.241.028v.365c0,1.183-.007,2.366,0,3.549a.778.778,0,0,1-.353.746Z" transform="translate(-146.539 -285.405)"/><path class="a" d="M214.39,390.253a7.767,7.767,0,1,1,7.78-7.744A7.751,7.751,0,0,1,214.39,390.253Zm.012-2.6c.849,0,1.7,0,2.548,0a1.527,1.527,0,0,0,1.585-1.585q.006-2.291,0-4.581a1.5,1.5,0,0,0-1.325-1.551c-.184-.029-.232-.1-.229-.275.006-.333.009-.668-.014-1a2.557,2.557,0,0,0-2.286-2.363,2.527,2.527,0,0,0-2.764,1.94,7.362,7.362,0,0,0-.087,1.415c0,.189-.061.258-.253.286a1.5,1.5,0,0,0-1.3,1.483q-.011,2.336,0,4.672a1.517,1.517,0,0,0,1.578,1.56C212.7,387.657,213.553,387.653,214.4,387.653Z" transform="translate(-88.045 -88.061)"/><path class="a" d="M168.509,553.767c0-1.01.009-1.97-.013-2.929,0-.112-.158-.262-.279-.325a10.969,10.969,0,0,1-3.247-2.549.536.536,0,0,1,.015-.823c.241-.182.487-.131.754.115.6.553,1.184,1.132,1.83,1.628a10.016,10.016,0,0,0,1.569.905.668.668,0,0,1,.423.661c-.006,1.072,0,2.144-.006,3.216a1.047,1.047,0,0,1-1.17,1.158q-2.138.009-4.277,0a.692.692,0,0,0-.584.217,1,1,0,0,1-1.46-.035,1.032,1.032,0,0,1,1.49-1.428.563.563,0,0,0,.471.193c1.385-.006,2.77,0,4.155,0Z" transform="translate(-46.821 -246.406)"/><path class="a" d="M348.178,293.212c0,.988-.006,1.958.01,2.927a.415.415,0,0,0,.218.27,11.24,11.24,0,0,1,2.834,2.056.513.513,0,0,1,.131.657.479.479,0,0,1-.561.258.68.68,0,0,1-.307-.176,9.837,9.837,0,0,0-3.029-2.081.533.533,0,0,1-.342-.524c0-1.163-.008-2.326.01-3.488a.972.972,0,0,1,.883-.959,3.229,3.229,0,0,1,.453-.023c1.415,0,2.831,0,4.246-.01a.611.611,0,0,0,.377-.173,1.048,1.048,0,0,1,1.5-.027,1.034,1.034,0,0,1,.006,1.471,1.056,1.056,0,0,1-1.5-.023.538.538,0,0,0-.318-.173c-1.5-.011-2.993-.007-4.489-.005A.829.829,0,0,0,348.178,293.212Z" transform="translate(-217.148 -11.697)"/><path class="a" d="M348.138,559.722h1.608c.97,0,1.94,0,2.91-.011a.66.66,0,0,0,.407-.174,1.067,1.067,0,0,1,1.5-.022,1.026,1.026,0,0,1,0,1.468,1.05,1.05,0,0,1-1.5-.018.7.7,0,0,0-.435-.179c-1.425-.013-2.849-.007-4.274-.008-.89,0-1.267-.38-1.267-1.276,0-1.011.01-2.021,0-3.032a.716.716,0,0,1,.476-.751,9.451,9.451,0,0,0,2.806-1.926,1,1,0,0,1,.336-.249.481.481,0,0,1,.6.216.476.476,0,0,1-.1.657c-.627.523-1.257,1.043-1.91,1.533-.3.228-.667.375-.994.575a.359.359,0,0,0-.166.242C348.134,557.737,348.138,558.706,348.138,559.722Z" transform="translate(-217.111 -252.362)"/><path class="a" d="M169.571,295.828c.464-.12.9-.239,1.336-.345a.522.522,0,0,1,.7.344c.086.316-.08.557-.443.668-.616.188-1.232.374-1.842.581-.479.163-.8-.045-.806-.561-.005-.991,0-1.981,0-2.972V293.2c-.117-.005-.2-.013-.293-.013-1.415,0-2.83,0-4.245.01a.611.611,0,0,0-.382.164,1.063,1.063,0,0,1-1.5.039,1.027,1.027,0,0,1,.007-1.49,1.046,1.046,0,0,1,1.495.048.605.605,0,0,0,.382.164c1.435.011,2.87.007,4.306.008.895,0,1.276.379,1.277,1.267,0,.708,0,1.415,0,2.123C169.557,295.615,169.566,295.712,169.571,295.828Z" transform="translate(-46.821 -11.695)"/><path class="a" d="M127.323,366.121c-.546,0-1.092-.009-1.637.007a.568.568,0,0,0-.355.155,1.04,1.04,0,1,1-1.531-1.408,1.055,1.055,0,0,1,1.518.032.606.606,0,0,0,.38.165c.93.014,1.86,0,2.79.012a.42.42,0,0,0,.413-.223,10.425,10.425,0,0,1,2.463-2.693c.321-.249.63-.25.83,0s.138.573-.191.829a9.693,9.693,0,0,0-2.436,2.753.682.682,0,0,1-.666.376c-.525-.016-1.051,0-1.577,0Z" transform="translate(-11.648 -76.357)"/><path class="a" d="M128.111,492.811c-.2-.582-.4-1.119-.574-1.662a7.845,7.845,0,0,1-.2-.79.515.515,0,0,1,.369-.635.493.493,0,0,1,.64.391,11.331,11.331,0,0,0,1.124,2.955.516.516,0,0,1-.511.778q-1.621.01-3.241,0a.525.525,0,0,0-.443.183,1.022,1.022,0,0,1-1.486.029,1.037,1.037,0,0,1,.005-1.469,1.008,1.008,0,0,1,1.483.036.522.522,0,0,0,.442.187C126.506,492.807,127.293,492.811,128.111,492.811Z" transform="translate(-11.633 -193.725)"/><path class="a" d="M408.168,492.816c.892,0,1.731,0,2.569-.006a.4.4,0,0,0,.245-.135,1.039,1.039,0,1,1,1.521,1.41,1.055,1.055,0,0,1-1.515-.081.563.563,0,0,0-.361-.141c-1.051-.011-2.1-.005-3.153-.006-.644,0-.867-.361-.562-.917a9.806,9.806,0,0,0,1.015-2.707c.084-.4.324-.579.65-.509s.48.339.367.729c-.2.686-.428,1.362-.647,2.042C408.266,492.588,408.223,492.678,408.168,492.816Z" transform="translate(-271.96 -193.731)"/><path class="a" d="M115.4,427.318c.2-.956.38-1.854.586-2.745a.534.534,0,0,1,.684-.463c.311.1.43.383.308.772a10.186,10.186,0,0,0-.456,2.86c-.009.434-.2.635-.63.636q-2.214.007-4.429,0c-.406,0-.64-.2-.641-.528s.229-.53.636-.531c1.223,0,2.447,0,3.67,0Z" transform="translate(0 -133.425)"/><path class="a" d="M296.922,283.537c.542.073,1.042.135,1.54.21a.523.523,0,1,1-.135,1.029c-.653-.061-1.305-.125-1.958-.188-.332-.032-.513-.242-.515-.628,0-.87,0-1.739,0-2.609,0-.607,0-1.213,0-1.82,0-.407.2-.64.526-.642s.531.229.533.636c0,1.224,0,2.447.005,3.671C296.922,283.306,296.922,283.416,296.922,283.537Z" transform="translate(-170.028)"/><path class="a" d="M267.155,456.914c-.8,0-1.6,0-2.394,0-.508,0-.674-.166-.675-.67q0-2.2,0-4.394c0-.457.187-.644.645-.644q2.454,0,4.909,0c.475,0,.656.184.657.664q0,2.2,0,4.394c0,.485-.168.649-.661.651C268.812,456.917,267.983,456.914,267.155,456.914Zm-1.5-3.138a1.5,1.5,0,0,0,.788,1.372.446.446,0,0,1,.272.352.444.444,0,0,0,.488.366.435.435,0,0,0,.464-.357.469.469,0,0,1,.293-.371,1.533,1.533,0,0,0,.689-1.855,1.559,1.559,0,0,0-1.769-1A1.536,1.536,0,0,0,265.657,453.776Z" transform="translate(-140.836 -158.345)"/><path class="a" d="M285.912,409.227h-3.155a9.8,9.8,0,0,1,.116-1.478,1.494,1.494,0,0,1,1.643-1.091,1.54,1.54,0,0,1,1.392,1.442C285.938,408.459,285.912,408.823,285.912,409.227Z" transform="translate(-157.994 -117.403)"/><path class="a" d="M296.978,477.344a.527.527,0,1,1-.53-.514A.55.55,0,0,1,296.978,477.344Z" transform="translate(-170.094 -181.896)"/></g></svg>