<svg xmlns="http://www.w3.org/2000/svg" width="145.467" height="42.58" viewBox="0 0 145.467 42.58">
  <g id="Group_3" data-name="Group 3" transform="translate(-321.343 418.682)">
    <rect id="Rectangle_2" data-name="Rectangle 2" width="145.467" height="42.58" transform="translate(321.343 -418.682)" fill="none"/>
    <g id="Group_2" data-name="Group 2">
      <path id="Path_1" data-name="Path 1" d="M354.119-404.624l-3.863-3.862c-.1-.1-.08-.105-.188,0l-3.871,3.87c-.1.1-.1.088,0,.183l.986.985,2.878,2.877c.122.122.1.123.223,0l2.308-2.308c.114-.114.229-.228.343-.344.093-.094.183-.191.276-.284s.163-.156.243-.236c.154-.155.306-.313.46-.468.093-.093.188-.185.282-.277v-.069A.261.261,0,0,1,354.119-404.624Z" fill="#8f969d"/>
      <path id="Path_2" data-name="Path 2" d="M334.686-385.149l-3.887-3.887c-.1-.1-.076-.1-.179,0l-3.871,3.873c-.019.019-.038.037-.056.057a.049.049,0,0,0,0,.077l.063.065,3.3,3.3.569.57c.025.026.063.045.061.09h.046c0-.052.048-.075.078-.106l3.863-3.863.064-.064c.024-.024.025-.034.005-.056S334.7-385.13,334.686-385.149Z" fill="#6e7780"/>
      <path id="Path_3" data-name="Path 3" d="M321.95-399.5q1.895,1.9,3.79,3.79c.1.1.075.1.179,0l3.87-3.871c.111-.111.111-.084,0-.2q-1.944-1.936-3.887-3.879c-.016-.016-.031-.033-.048-.048a.032.032,0,0,0-.046,0l0,0-.049.047q-1.668,1.672-3.34,3.343l-.561.56c-.029.029-.052.067-.1.07v.023a.082.082,0,0,1,.059.029C321.858-399.585,321.9-399.54,321.95-399.5Z" fill="#75b334"/>
      <path id="Path_4" data-name="Path 4" d="M354.073-414.4l-3.813-3.815c-.031-.031-.081-.053-.081-.106h-.045c0,.05-.042.07-.07.1l-2.168,2.169-1.7,1.7q-.036.036-.069.075a.032.032,0,0,0,0,.041c.024.029.05.056.077.083l2.565,2.563,1.3,1.3c.024.024.049.047.074.07a.023.023,0,0,0,.031,0,.547.547,0,0,0,.051-.045c.124-.122.246-.245.368-.368.144-.145.286-.291.43-.435q1.323-1.332,2.65-2.654c.173-.173.348-.345.522-.518v-.045C354.154-414.321,354.112-414.359,354.073-414.4Z" fill="#92c157"/>
      <path id="Path_5" data-name="Path 5" d="M329.387-389.426l.473-.471c.033-.034.033-.041,0-.074l-.064-.065-.882-.88-2.98-2.981c-.114-.114-.082-.114-.2,0q-1.716,1.713-3.43,3.429c-.171.171-.341.343-.511.514h-.044v.046l.045-.005c.021.021.044.041.065.063l3.229,3.229.7.7c.042.041.053.041.093,0l.924-.919Z" fill="#6e7780"/>
      <path id="Path_6" data-name="Path 6" d="M340.421-400.481a.221.221,0,0,0,.094-.074l1.874-1.875c.256-.256.511-.514.767-.771l1.249-1.25c.016-.016.033-.031.048-.048a.047.047,0,0,0,0-.068.49.49,0,0,0-.055-.056l-.442-.44-3.43-3.428c-.1-.105-.081-.1-.188,0l-.9.9c-.238.237-.478.473-.715.71l-2.252,2.252a.309.309,0,0,0-.083.1Z" fill="#81ba44"/>
      <path id="Path_7" data-name="Path 7" d="M341.32-409.31l3.885,3.887c.018.019.037.038.056.056a.047.047,0,0,0,.069,0l.024-.023.9-.9c.139-.139.275-.28.414-.418s.274-.27.41-.406c.155-.155.307-.312.462-.467l1.719-1.725c.028-.028.064-.052.075-.083l-4.047-4.047c-.036.033-.079.069-.119.109-.245.246-.489.493-.735.738-.2.2-.408.4-.611.606l-2.476,2.476c-.024.024-.049.047-.072.072s-.031.045,0,.077C341.287-409.342,341.3-409.326,341.32-409.31Z" fill="#8bbe4f"/>
      <path id="Path_8" data-name="Path 8" d="M340.533-398.756l-.064-.064a.038.038,0,0,0-.053-.006l-.006.006-.065.064-3.866,3.859c-.021.021-.043.042-.063.065a.049.049,0,0,0,0,.077c.03.031.063.065.1.1l3.822,3.821c.115.115.088.116.2,0q1.965-1.962,3.926-3.926a.221.221,0,0,0,.021-.032c-.025-.027-.05-.055-.076-.081Z" fill="#7c868c"/>
      <path id="Path_9" data-name="Path 9" d="M339.553-390.008l-3.874-3.877c-.114-.114-.089-.114-.206,0l-3.863,3.861-.087.092.1.1,3.846,3.846c.118.118.094.118.215,0q1.647-1.647,3.293-3.293.3-.3.608-.61c.043-.043.042-.048,0-.091Z" fill="#727c83"/>
      <path id="Path_10" data-name="Path 10" d="M326.657-394.8a.262.262,0,0,0,.065.075l3.886,3.886.065.063a.039.039,0,0,0,.055.005l.005-.005.1-.1,1.547-1.544c.371-.371.741-.744,1.112-1.115l1.169-1.17c.1-.1.106-.078,0-.187l-1.73-1.731-2.152-2.163a.175.175,0,0,0-.087-.064l-4,4A.082.082,0,0,0,326.657-394.8Z" fill="#75b435"/>
      <path id="Path_11" data-name="Path 11" d="M331.6-399.574l3.869,3.869c.111.11.087.11.2,0l2.275-2.275.768-.769c.155-.155.309-.311.463-.466l.425-.424v-.047h0a.027.027,0,0,0-.022-.022h0a.027.027,0,0,0-.022-.022h0a.022.022,0,0,0-.021-.021h0a.027.027,0,0,0-.022-.022h0a.027.027,0,0,0-.022-.022h0a.023.023,0,0,0-.021-.021h0a.027.027,0,0,0-.022-.022h0a.028.028,0,0,0-.021-.022h0a.022.022,0,0,0-.021-.021h0a.027.027,0,0,0-.022-.022h0a.026.026,0,0,0-.022-.022h0a.024.024,0,0,0-.021-.021h0a.026.026,0,0,0-.022-.022h0a.026.026,0,0,0-.022-.022h0a.022.022,0,0,0-.021-.021h0a.027.027,0,0,0-.022-.021h0a.026.026,0,0,0-.022-.022h0a.023.023,0,0,0-.021-.021h0a.026.026,0,0,0-.022-.022h0a.026.026,0,0,0-.022-.022h0a.022.022,0,0,0-.021-.021h0a.027.027,0,0,0-.022-.021h0a.033.033,0,0,0,0-.046.033.033,0,0,0-.046,0h0a.022.022,0,0,0-.021-.021h0a.027.027,0,0,0-.022-.021h0a.027.027,0,0,0-.022-.022h0a.023.023,0,0,0-.021-.021h0a.027.027,0,0,0-.022-.022h0a.027.027,0,0,0-.022-.022h0a.022.022,0,0,0-.021-.021h0a.027.027,0,0,0-.022-.021h0a.027.027,0,0,0-.022-.022h0a.023.023,0,0,0-.021-.021h0a.027.027,0,0,0-.022-.022h0a.027.027,0,0,0-.022-.022h0a.026.026,0,0,0,0-.036.027.027,0,0,0-.036.005h0a.027.027,0,0,0-.022-.021h0a.027.027,0,0,0-.022-.022h0a.023.023,0,0,0-.021-.021h0a.027.027,0,0,0-.022-.021h0a.027.027,0,0,0-.022-.022h0a.023.023,0,0,0-.021-.021h0a.027.027,0,0,0-.022-.022h0a.027.027,0,0,0-.022-.022h0a.023.023,0,0,0-.021-.021h0a.027.027,0,0,0-.022-.021h0a.027.027,0,0,0-.022-.022h0a.023.023,0,0,0-.021-.021h0a.027.027,0,0,0-.022-.021h0a.027.027,0,0,0-.022-.022h0a.023.023,0,0,0-.021-.021h0a.027.027,0,0,0-.022-.021h0a.027.027,0,0,0-.022-.022h0a.023.023,0,0,0-.021-.021h0a.027.027,0,0,0-.022-.021h0a.027.027,0,0,0-.022-.022h0a.023.023,0,0,0-.021-.021h0a.027.027,0,0,0-.022-.021h0a.027.027,0,0,0-.022-.022h0a.023.023,0,0,0-.021-.021h0a.027.027,0,0,0-.022-.021h0a.027.027,0,0,0-.022-.022h0a.023.023,0,0,0-.021-.021h0a.023.023,0,0,0-.021-.021h0a.027.027,0,0,0-.022-.022h0a.025.025,0,0,0-.021-.022h0a.042.042,0,0,0,.008-.059.042.042,0,0,0-.059-.007h0a.027.027,0,0,0-.022-.022h0a.023.023,0,0,0-.021-.021h0a.023.023,0,0,0-.021-.021h0a.027.027,0,0,0-.022-.022h0a.023.023,0,0,0-.021-.021h0a.023.023,0,0,0-.021-.021h0a.027.027,0,0,0-.022-.022h0a.025.025,0,0,0-.021-.022h0a.023.023,0,0,0-.021-.021h0a.027.027,0,0,0-.022-.022h0a.025.025,0,0,0-.021-.022h0a.023.023,0,0,0-.021-.021h0a.026.026,0,0,0-.022-.022h0a.025.025,0,0,0-.021-.022h0a.023.023,0,0,0-.021-.021h0a.027.027,0,0,0-.022-.022h0a.025.025,0,0,0-.021-.022h0a.023.023,0,0,0-.021-.021h0a.027.027,0,0,0-.022-.022h0a.025.025,0,0,0-.021-.022h0a.023.023,0,0,0-.021-.021h0a.027.027,0,0,0-.022-.022h0a.025.025,0,0,0-.021-.022h0a.023.023,0,0,0-.021-.021h0a.026.026,0,0,0-.022-.022h0a.027.027,0,0,0-.022-.022h0a.023.023,0,0,0-.021-.021h0a.027.027,0,0,0-.022-.022h0a.025.025,0,0,0-.021-.022h0a.022.022,0,0,0-.021-.021h0a.026.026,0,0,0-.022-.022h0a.027.027,0,0,0-.022-.022h0a.023.023,0,0,0-.021-.021h0a.027.027,0,0,0-.022-.022h0a.028.028,0,0,0-.021-.022h0a.022.022,0,0,0-.021-.021h0a.027.027,0,0,0-.022-.022h0a.027.027,0,0,0-.022-.022h0a.023.023,0,0,0-.021-.021h0a.027.027,0,0,0-.022-.022h0a.027.027,0,0,0-.022-.022h0a.022.022,0,0,0-.021-.021h0a.027.027,0,0,0-.022-.022h0a.051.051,0,0,0-.005-.073.051.051,0,0,0-.073.005h0a.022.022,0,0,0-.021-.021h0a.027.027,0,0,0-.022-.022h0a.027.027,0,0,0-.022-.022h0a.023.023,0,0,0-.021-.021h0a.027.027,0,0,0-.022-.022h0a.028.028,0,0,0-.021-.022h0a.022.022,0,0,0-.021-.021h0a.027.027,0,0,0-.022-.021h0a.027.027,0,0,0-.022-.022h0a.023.023,0,0,0-.021-.021h0a.027.027,0,0,0-.022-.022h0a.027.027,0,0,0-.022-.022h0a.022.022,0,0,0-.021-.021h0a.027.027,0,0,0-.022-.021h0a.027.027,0,0,0-.022-.022h0a.022.022,0,0,0-.021-.021h0a.027.027,0,0,0-.022-.022h0a.027.027,0,0,0-.022-.022h0a.023.023,0,0,0-.021-.021h0a.027.027,0,0,0-.022-.022h0a.027.027,0,0,0-.022-.022h0a.022.022,0,0,0-.021-.021h0a.027.027,0,0,0-.022-.021h0a.027.027,0,0,0-.022-.022h0a.023.023,0,0,0-.021-.021h0a.027.027,0,0,0-.022-.022h0a.027.027,0,0,0-.022-.022h0a.022.022,0,0,0-.021-.021h0a.027.027,0,0,0-.022-.021h0a.027.027,0,0,0-.022-.022h0a.023.023,0,0,0-.021-.021h0a.026.026,0,0,0-.022-.022h0a.026.026,0,0,0-.022-.022h0a.023.023,0,0,0-.021-.021h0a.026.026,0,0,0-.022-.022h0a.027.027,0,0,0-.022-.022h0a.022.022,0,0,0-.021-.021h0a.027.027,0,0,0-.022-.021h0a.026.026,0,0,0-.022-.022h0a.023.023,0,0,0-.021-.021h0a.026.026,0,0,0-.022-.022h0a.027.027,0,0,0-.022-.022h0a.022.022,0,0,0-.021-.021h0a.027.027,0,0,0-.022-.021h0a.027.027,0,0,0-.022-.022h0a.023.023,0,0,0-.021-.021h0a.027.027,0,0,0-.022-.021h0a.027.027,0,0,0-.022-.022h0a.023.023,0,0,0-.021-.021h0a.027.027,0,0,0-.022-.021h0a.027.027,0,0,0-.022-.022h0a.025.025,0,0,0-.021-.022h0a.027.027,0,0,0-.022-.021h0a.027.027,0,0,0-.022-.022h0a.023.023,0,0,0-.021-.021h0a.024.024,0,0,0-.021-.022h0a.027.027,0,0,0-.022-.022h0a.025.025,0,0,0-.021-.022h0a.027.027,0,0,0-.022-.021h0a.027.027,0,0,0-.022-.022h0a.023.023,0,0,0-.021-.021h0a.023.023,0,0,0-.021-.021h0a.027.027,0,0,0-.022-.022h0a.023.023,0,0,0-.021-.021h0a.025.025,0,0,0-.021-.022l-.024-.023c-.019-.026-.034-.021-.048.005l-.041.039-3.9,3.9C331.5-399.658,331.5-399.676,331.6-399.574Z" fill="#7bb73b"/>
      <path id="Path_12" data-name="Path 12" d="M349.261-399.756l-.914-.912-2.956-2.956c-.1-.1-.086-.1-.183,0l-1.907,1.907a.271.271,0,0,0-.073.085.315.315,0,0,0-.085.074q-.909.908-1.818,1.818c-.093.092-.088.075,0,.163L345.2-395.7c.106.106.092.1.2,0l1.877-1.876c.027-.027.051-.056.076-.084a.346.346,0,0,1,.052-.043l.854-.844q.5-.5.993-.993c.022-.022.044-.042.064-.065.039-.042.04-.054,0-.094C349.3-399.719,349.279-399.737,349.261-399.756Zm-3.71.286h0l-.008.019Zm-.008.019h0l.01.006Z" fill="#868e95"/>
      <path id="Path_13" data-name="Path 13" d="M339.6-399.686v.047C339.621-399.653,339.626-399.668,339.6-399.686Z" fill="#fff"/>
      <g id="Group_1" data-name="Group 1">
        <path id="Path_14" data-name="Path 14" d="M361.663-388.59a3.858,3.858,0,0,0,1.171,1.375,5.079,5.079,0,0,0,1.713.78,8.091,8.091,0,0,0,2.036.254,10.673,10.673,0,0,0,1.527-.118,5.292,5.292,0,0,0,1.527-.458,3.326,3.326,0,0,0,1.187-.933,2.34,2.34,0,0,0,.475-1.51,2.123,2.123,0,0,0-.627-1.6,4.959,4.959,0,0,0-1.646-1.018,16.41,16.41,0,0,0-2.307-.713q-1.29-.3-2.613-.678a23.128,23.128,0,0,1-2.647-.831,9.12,9.12,0,0,1-2.307-1.273,5.987,5.987,0,0,1-1.645-1.951,5.921,5.921,0,0,1-.628-2.833,6.353,6.353,0,0,1,.8-3.241,7.226,7.226,0,0,1,2.087-2.29,9.09,9.09,0,0,1,2.913-1.352,12.408,12.408,0,0,1,3.257-.441,15.4,15.4,0,0,1,3.648.424,9.1,9.1,0,0,1,3.1,1.374,6.957,6.957,0,0,1,2.161,2.426,7.448,7.448,0,0,1,.8,3.58h-5.16a4.288,4.288,0,0,0-.458-1.8,2.971,2.971,0,0,0-1.035-1.12,4.355,4.355,0,0,0-1.476-.577,9.128,9.128,0,0,0-1.815-.17,6.3,6.3,0,0,0-1.29.136,3.462,3.462,0,0,0-1.17.475,2.95,2.95,0,0,0-.865.848,2.281,2.281,0,0,0-.34,1.29,2.17,2.17,0,0,0,.272,1.153,2.424,2.424,0,0,0,1.069.815,13.571,13.571,0,0,0,2.2.746q1.407.374,3.682.95.678.137,1.883.492a9.062,9.062,0,0,1,2.392,1.137,7.238,7.238,0,0,1,2.053,2.087,5.938,5.938,0,0,1,.865,3.342,7.382,7.382,0,0,1-.645,3.088,6.705,6.705,0,0,1-1.917,2.46,9.211,9.211,0,0,1-3.155,1.611,14.915,14.915,0,0,1-4.361.577,15.3,15.3,0,0,1-3.885-.492,9.77,9.77,0,0,1-3.325-1.544,7.619,7.619,0,0,1-2.29-2.68,8,8,0,0,1-.814-3.868h5.157A4.455,4.455,0,0,0,361.663-388.59Z" fill="#fff"/>
        <path id="Path_15" data-name="Path 15" d="M383.005-400.16v2.239h.068a5.3,5.3,0,0,1,2.239-2.069,6.875,6.875,0,0,1,2.986-.645,7.6,7.6,0,0,1,3.563.78,7.373,7.373,0,0,1,2.477,2.07,8.73,8.73,0,0,1,1.459,3,13.322,13.322,0,0,1,.475,3.58,12.059,12.059,0,0,1-.475,3.393,8.62,8.62,0,0,1-1.442,2.884,7.133,7.133,0,0,1-2.409,2,7.254,7.254,0,0,1-3.376.746,6.84,6.84,0,0,1-3-.661,5.693,5.693,0,0,1-2.257-1.951h-.067v8.313h-4.822V-400.16Zm6.26,13.912a3.87,3.87,0,0,0,1.29-1.239,5.115,5.115,0,0,0,.7-1.781,10.5,10.5,0,0,0,.2-2.07,9.669,9.669,0,0,0-.221-2.07,5.52,5.52,0,0,0-.729-1.815,4.054,4.054,0,0,0-1.307-1.289,3.644,3.644,0,0,0-1.951-.492,3.721,3.721,0,0,0-1.985.492,3.966,3.966,0,0,0-1.289,1.272,5.329,5.329,0,0,0-.7,1.8,10.805,10.805,0,0,0-.2,2.1,9.8,9.8,0,0,0,.22,2.07,5.362,5.362,0,0,0,.713,1.781,4.111,4.111,0,0,0,5.259,1.239Z" fill="#fff"/>
        <path id="Path_16" data-name="Path 16" d="M399.122-397.581a5.788,5.788,0,0,1,1.9-1.8,8.307,8.307,0,0,1,2.6-.967,14.792,14.792,0,0,1,2.9-.288,19.688,19.688,0,0,1,2.68.187,8.217,8.217,0,0,1,2.477.729,4.876,4.876,0,0,1,1.833,1.51,4.215,4.215,0,0,1,.712,2.562v9.127a18.384,18.384,0,0,0,.136,2.274,4.1,4.1,0,0,0,.475,1.628h-4.889a6.827,6.827,0,0,1-.221-.831,7.431,7.431,0,0,1-.119-.865,6.261,6.261,0,0,1-2.714,1.662,10.867,10.867,0,0,1-3.189.475,8.615,8.615,0,0,1-2.342-.3,5.375,5.375,0,0,1-1.9-.95,4.415,4.415,0,0,1-1.272-1.629,5.508,5.508,0,0,1-.458-2.341,5.121,5.121,0,0,1,.526-2.46,4.392,4.392,0,0,1,1.357-1.544,6.089,6.089,0,0,1,1.9-.865,20.341,20.341,0,0,1,2.155-.458q1.086-.166,2.137-.267a12.644,12.644,0,0,0,1.866-.3,3.252,3.252,0,0,0,1.29-.6,1.3,1.3,0,0,0,.441-1.136,2.54,2.54,0,0,0-.255-1.239,1.865,1.865,0,0,0-.678-.713,2.686,2.686,0,0,0-.984-.339,8.16,8.16,0,0,0-1.2-.085,3.661,3.661,0,0,0-2.239.611,2.726,2.726,0,0,0-.95,2.036h-4.823A5.6,5.6,0,0,1,399.122-397.581Zm9.517,6.8a7.717,7.717,0,0,1-.984.254q-.525.1-1.1.17t-1.154.17a8.629,8.629,0,0,0-1.069.271,3.186,3.186,0,0,0-.916.458,2.2,2.2,0,0,0-.628.73,2.354,2.354,0,0,0-.237,1.119,2.283,2.283,0,0,0,.237,1.086,1.832,1.832,0,0,0,.645.7,2.747,2.747,0,0,0,.95.356,6.1,6.1,0,0,0,1.12.1,4.249,4.249,0,0,0,2.205-.475,3.176,3.176,0,0,0,1.154-1.137,3.63,3.63,0,0,0,.458-1.34,9.184,9.184,0,0,0,.085-1.086v-1.8a2.166,2.166,0,0,1-.766.427Z" fill="#fff"/>
        <path id="Path_17" data-name="Path 17" d="M421.063-400.16v3.257h.068a5.93,5.93,0,0,1,.916-1.51,6.028,6.028,0,0,1,1.323-1.187,6.485,6.485,0,0,1,1.6-.764,5.775,5.775,0,0,1,1.764-.271,3.751,3.751,0,0,1,1.052.17v4.478c-.226-.045-.5-.084-.814-.118a8.761,8.761,0,0,0-.916-.051,5.141,5.141,0,0,0-2.24.441,3.9,3.9,0,0,0-1.476,1.2,4.842,4.842,0,0,0-.8,1.782,9.692,9.692,0,0,0-.238,2.2v7.906h-4.823V-400.16Z" fill="#fff"/>
        <rect id="Rectangle_1" data-name="Rectangle 1" width="4.818" height="17.542" transform="translate(429.336 -400.16)" fill="#fff"/>
        <path id="Path_18" data-name="Path 18" d="M447.11-400.16v3.223h-3.531v8.687a2.354,2.354,0,0,0,.407,1.628,2.349,2.349,0,0,0,1.628.408c.272,0,.532-.012.781-.034a6.821,6.821,0,0,0,.712-.1v3.732a11.633,11.633,0,0,1-1.357.136q-.747.033-1.459.034a13.953,13.953,0,0,1-2.121-.153,5,5,0,0,1-1.764-.594,3.137,3.137,0,0,1-1.205-1.255,4.5,4.5,0,0,1-.441-2.138v-10.351h-2.918v-3.223h2.918v-5.259h4.819v5.259Z" fill="#fff"/>
        <path id="Path_19" data-name="Path 19" d="M456.9-377.392a6.994,6.994,0,0,1-3.868.916q-.747,0-1.476-.051t-1.48-.119v-3.97l1.391.136a10.118,10.118,0,0,0,1.425.034,1.871,1.871,0,0,0,1.408-.747,2.391,2.391,0,0,0,.458-1.425,2.885,2.885,0,0,0-.2-1.086l-6.142-16.456h5.124l3.97,12.012h.068l3.834-12.012H466.4l-7.324,19.714A5.941,5.941,0,0,1,456.9-377.392Z" fill="#fff"/>
        <circle id="Ellipse_1" data-name="Ellipse 1" cx="2.415" cy="2.415" r="2.415" transform="translate(429.355 -407.773)" fill="#fff"/>
      </g>
    </g>
  </g>
</svg>
