<svg xmlns="http://www.w3.org/2000/svg" xmlns:xlink="http://www.w3.org/1999/xlink" width="224" height="53" viewBox="0 0 224 53">
  <defs>
    <clipPath id="clip-Original_Logo">
      <rect width="224" height="53"/>
    </clipPath>
  </defs>
  <g id="Original_Logo" data-name="Original Logo" clip-path="url(#clip-Original_Logo)">
    <g id="Group_550" data-name="Group 550" transform="translate(-5748 571)">
      <rect id="Rectangle_2" data-name="Rectangle 2" width="156.537" height="47.897" transform="translate(5750 -568)" fill="none"/>
      <g id="Group_2" data-name="Group 2" transform="translate(5750.437 -568)">
        <path id="Path_1" data-name="Path 1" d="M354.728-404.324l-4.157-4.156c-.108-.108-.086-.113-.2,0l-4.166,4.165c-.108.108-.108.095,0,.2l1.061,1.06,3.1,3.1c.131.131.108.132.24,0l2.484-2.484c.123-.123.246-.245.369-.37.1-.1.2-.206.3-.306s.175-.168.262-.254c.166-.167.329-.337.5-.5.1-.1.2-.2.3-.3v-.074A.28.28,0,0,1,354.728-404.324Z" transform="translate(-319.894 419.064)" fill="#8f969d"/>
        <path id="Path_2" data-name="Path 2" d="M335.3-384.847l-4.183-4.183c-.108-.108-.082-.108-.193,0l-4.166,4.168c-.02.02-.041.04-.06.061a.053.053,0,0,0-.02.041.053.053,0,0,0,.02.041l.068.07,3.551,3.551.612.613c.027.028.068.048.066.1h.049c0-.056.052-.081.084-.114l4.157-4.157.069-.069c.026-.026.027-.037.005-.06S335.311-384.827,335.3-384.847Z" transform="translate(-321.374 420.544)" fill="#6e7780"/>
        <path id="Path_3" data-name="Path 3" d="M321.965-399.179q2.039,2.045,4.078,4.078c.108.108.081.108.193,0l4.164-4.166c.119-.119.119-.09,0-.215q-2.092-2.083-4.183-4.174c-.017-.017-.033-.035-.052-.052a.034.034,0,0,0-.025-.01.035.035,0,0,0-.025.011h0l-.053.051q-1.795,1.8-3.594,3.6l-.6.6c-.031.031-.056.072-.108.075v.025a.088.088,0,0,1,.064.031A.92.92,0,0,0,321.965-399.179Z" transform="translate(-321.748 419.432)" fill="#75b334"/>
        <path id="Path_4" data-name="Path 4" d="M354.678-414.1l-4.1-4.105c-.033-.033-.087-.057-.087-.114h-.048c0,.054-.045.075-.075.108l-2.333,2.334L346.2-414.05q-.039.039-.074.081a.034.034,0,0,0,0,.044c.026.031.054.06.083.089l2.76,2.758,1.4,1.4c.026.026.053.051.08.075a.025.025,0,0,0,.033,0,.575.575,0,0,0,.055-.048c.133-.131.265-.264.4-.4.155-.156.308-.313.463-.468q1.424-1.433,2.852-2.856c.186-.186.375-.371.562-.557v-.048C354.765-414.017,354.72-414.058,354.678-414.1Z" transform="translate(-319.894 418.321)" fill="#92c157"/>
        <path id="Path_5" data-name="Path 5" d="M329.968-389.079l.509-.507c.035-.037.035-.044,0-.08l-.069-.07-.949-.947-3.207-3.208c-.123-.123-.088-.123-.215,0q-1.847,1.843-3.691,3.69c-.184.184-.367.369-.55.553h-.047v.049l.048-.005c.023.023.047.044.07.068l3.475,3.475.753.753c.045.044.057.044.1,0l.994-.989Z" transform="translate(-321.749 420.173)" fill="#6e7780"/>
        <path id="Path_6" data-name="Path 6" d="M340.728-399.866a.238.238,0,0,0,.1-.08l2.017-2.018c.276-.276.55-.553.825-.83l1.344-1.345c.017-.017.035-.033.052-.052a.05.05,0,0,0,.016-.037.05.05,0,0,0-.016-.037.521.521,0,0,0-.059-.06l-.476-.473-3.691-3.689c-.108-.113-.087-.108-.2,0l-.968.968c-.256.255-.514.509-.769.764l-2.423,2.423a.333.333,0,0,0-.089.108Z" transform="translate(-320.635 419.063)" fill="#81ba44"/>
        <path id="Path_7" data-name="Path 7" d="M341.325-409l4.181,4.183c.019.02.04.041.06.06a.05.05,0,0,0,.037.016.051.051,0,0,0,.037-.016l.026-.025.969-.968c.15-.15.3-.3.445-.45s.295-.29.441-.437c.167-.167.33-.336.5-.5l1.85-1.856c.03-.03.069-.056.081-.089l-4.355-4.355c-.039.035-.085.074-.128.117-.264.265-.526.53-.791.794-.215.215-.439.43-.658.652l-2.664,2.664c-.026.026-.053.051-.078.078s-.033.048,0,.083A.311.311,0,0,0,341.325-409Z" transform="translate(-320.265 418.693)" fill="#8bbe4f"/>
        <path id="Path_8" data-name="Path 8" d="M340.848-398.75l-.069-.069a.041.041,0,0,0-.057-.006l-.006.006-.07.069-4.16,4.153c-.023.023-.046.045-.068.07a.053.053,0,0,0-.02.041.053.053,0,0,0,.02.041c.032.033.068.07.108.108l4.113,4.112c.124.124.095.125.215,0q2.115-2.111,4.225-4.225a.244.244,0,0,0,.023-.034c-.027-.029-.054-.059-.082-.087Z" transform="translate(-320.634 419.804)" fill="#7c868c"/>
        <path id="Path_9" data-name="Path 9" d="M340.164-389.706,336-393.879c-.123-.123-.1-.123-.222,0l-4.157,4.155-.094.1.108.108,4.139,4.139c.127.127.1.127.231,0l3.544-3.544.654-.656c.046-.046.045-.052,0-.1Z" transform="translate(-321.005 420.174)" fill="#727c83"/>
        <path id="Path_10" data-name="Path 10" d="M326.657-394.492a.281.281,0,0,0,.07.081l4.182,4.182.07.068a.042.042,0,0,0,.028.015.042.042,0,0,0,.031-.01l.005-.005.108-.108,1.665-1.661c.4-.4.8-.8,1.2-1.2l1.258-1.259c.108-.108.114-.084,0-.2l-1.862-1.863-2.316-2.328a.188.188,0,0,0-.094-.069l-4.3,4.3a.088.088,0,0,0-.038.054Z" transform="translate(-321.376 419.803)" fill="#75b435"/>
        <path id="Path_11" data-name="Path 11" d="M331.605-399.264l4.163,4.163c.12.118.094.118.215,0l2.448-2.448.826-.828c.167-.167.332-.335.5-.5l.457-.456v-.051h0a.029.029,0,0,0-.024-.024h0a.029.029,0,0,0-.024-.024h0a.024.024,0,0,0-.023-.023h0a.029.029,0,0,0-.024-.024h0a.029.029,0,0,0-.024-.024h0a.025.025,0,0,0-.023-.023h0a.029.029,0,0,0-.024-.024h0a.03.03,0,0,0-.023-.024h0a.024.024,0,0,0-.023-.023h0a.029.029,0,0,0-.024-.024h0a.028.028,0,0,0-.024-.024h0a.026.026,0,0,0-.023-.023h0a.028.028,0,0,0-.024-.024h0a.028.028,0,0,0-.024-.024h0a.024.024,0,0,0-.023-.023h0a.029.029,0,0,0-.024-.023h0a.028.028,0,0,0-.024-.024h0a.025.025,0,0,0-.023-.023h0a.028.028,0,0,0-.024-.024h0a.028.028,0,0,0-.024-.024h0a.024.024,0,0,0-.023-.023h0a.029.029,0,0,0-.024-.023h0a.035.035,0,0,0,0-.049.035.035,0,0,0-.049,0h0a.024.024,0,0,0-.023-.023h0a.029.029,0,0,0-.024-.023h0a.029.029,0,0,0-.024-.024h0a.025.025,0,0,0-.023-.023h0a.029.029,0,0,0-.024-.024h0a.029.029,0,0,0-.024-.024h0a.024.024,0,0,0-.023-.023h0a.029.029,0,0,0-.024-.023h0a.029.029,0,0,0-.024-.024h0a.025.025,0,0,0-.023-.022h0a.029.029,0,0,0-.024-.024h0a.029.029,0,0,0-.024-.024h0a.028.028,0,0,0,0-.039.029.029,0,0,0-.039.005h0a.029.029,0,0,0-.024-.023h0a.029.029,0,0,0-.024-.024h0a.025.025,0,0,0-.023-.023h0a.029.029,0,0,0-.024-.023h0a.029.029,0,0,0-.024-.024h0a.025.025,0,0,0-.023-.023h0a.029.029,0,0,0-.024-.024h0a.029.029,0,0,0-.024-.024h0a.025.025,0,0,0-.023-.023h0a.029.029,0,0,0-.024-.023h0a.029.029,0,0,0-.024-.024h0a.025.025,0,0,0-.023-.023h0a.029.029,0,0,0-.024-.023h0a.029.029,0,0,0-.024-.024h0a.025.025,0,0,0-.023-.023h0a.029.029,0,0,0-.024-.023h0a.029.029,0,0,0-.024-.024h0a.025.025,0,0,0-.023-.023h0a.029.029,0,0,0-.024-.023h0a.029.029,0,0,0-.024-.024h0a.025.025,0,0,0-.023-.022h0a.029.029,0,0,0-.024-.023h0a.029.029,0,0,0-.024-.024h0a.025.025,0,0,0-.023-.023h0a.029.029,0,0,0-.024-.023h0a.029.029,0,0,0-.024-.024h0a.025.025,0,0,0-.023-.023h0a.025.025,0,0,0-.023-.023h0a.029.029,0,0,0-.024-.024h0a.027.027,0,0,0-.023-.024h0a.045.045,0,0,0,.018-.03.045.045,0,0,0-.009-.034.045.045,0,0,0-.063-.007h0a.029.029,0,0,0-.024-.024h0a.025.025,0,0,0-.023-.023h0a.025.025,0,0,0-.023-.023h0a.029.029,0,0,0-.024-.024h0a.025.025,0,0,0-.023-.023h0a.025.025,0,0,0-.023-.023h0a.029.029,0,0,0-.024-.024h0a.027.027,0,0,0-.023-.024h0a.025.025,0,0,0-.023-.023h0a.029.029,0,0,0-.024-.024h0a.027.027,0,0,0-.023-.024h0a.025.025,0,0,0-.023-.023h0a.028.028,0,0,0-.024-.024h0a.027.027,0,0,0-.023-.024h0a.025.025,0,0,0-.023-.023h0a.029.029,0,0,0-.024-.024h0a.027.027,0,0,0-.023-.024h0a.025.025,0,0,0-.023-.023h0a.029.029,0,0,0-.024-.024h0a.027.027,0,0,0-.023-.024h0a.025.025,0,0,0-.023-.023h0a.029.029,0,0,0-.024-.024h0a.027.027,0,0,0-.023-.024h0a.025.025,0,0,0-.023-.023h0a.028.028,0,0,0-.024-.024h0a.029.029,0,0,0-.024-.024h0a.025.025,0,0,0-.023-.023h0a.029.029,0,0,0-.024-.024h0a.027.027,0,0,0-.023-.024h0a.024.024,0,0,0-.023-.023h0a.028.028,0,0,0-.024-.024h0a.029.029,0,0,0-.024-.024h0a.025.025,0,0,0-.023-.023h0a.029.029,0,0,0-.024-.024h0a.03.03,0,0,0-.023-.024h0a.024.024,0,0,0-.023-.023h0a.029.029,0,0,0-.024-.024h0a.029.029,0,0,0-.024-.024h0a.025.025,0,0,0-.023-.023h0a.029.029,0,0,0-.024-.024h0a.029.029,0,0,0-.024-.024h0a.024.024,0,0,0-.023-.023h0a.029.029,0,0,0-.024-.024h0a.055.055,0,0,0,.014-.04.055.055,0,0,0-.019-.038.055.055,0,0,0-.04-.014.055.055,0,0,0-.038.019h0a.024.024,0,0,0-.023-.023h0a.029.029,0,0,0-.024-.024h0a.029.029,0,0,0-.024-.024h0a.025.025,0,0,0-.023-.022h0a.029.029,0,0,0-.024-.024h0a.03.03,0,0,0-.023-.024h0a.024.024,0,0,0-.023-.023h0a.029.029,0,0,0-.024-.023h0a.029.029,0,0,0-.024-.024h0a.025.025,0,0,0-.023-.023h0a.029.029,0,0,0-.024-.024h0a.029.029,0,0,0-.024-.024h0a.024.024,0,0,0-.023-.023h0a.029.029,0,0,0-.024-.023h0a.029.029,0,0,0-.024-.024h0a.024.024,0,0,0-.023-.023h0a.029.029,0,0,0-.024-.024h0a.029.029,0,0,0-.024-.024h0a.025.025,0,0,0-.023-.023h0a.029.029,0,0,0-.024-.024h0a.029.029,0,0,0-.024-.024h0a.024.024,0,0,0-.023-.023h0a.029.029,0,0,0-.024-.023h0a.029.029,0,0,0-.024-.024h0a.025.025,0,0,0-.023-.023h0a.029.029,0,0,0-.024-.024h0a.029.029,0,0,0-.024-.024h0a.024.024,0,0,0-.023-.023h0a.029.029,0,0,0-.024-.023h0a.029.029,0,0,0-.024-.024h0a.025.025,0,0,0-.023-.023h0a.028.028,0,0,0-.024-.024h0a.028.028,0,0,0-.024-.024h0a.025.025,0,0,0-.023-.023h0a.028.028,0,0,0-.024-.024h0a.029.029,0,0,0-.024-.024h0a.024.024,0,0,0-.023-.023h0a.029.029,0,0,0-.024-.023h0A.028.028,0,0,0,336.6-403h0a.025.025,0,0,0-.023-.023h0a.028.028,0,0,0-.024-.024h0a.029.029,0,0,0-.024-.024h0a.024.024,0,0,0-.023-.023h0a.029.029,0,0,0-.024-.023h0a.029.029,0,0,0-.024-.024h0a.025.025,0,0,0-.023-.023h0a.029.029,0,0,0-.024-.023h0a.029.029,0,0,0-.024-.024h0a.025.025,0,0,0-.023-.023h0a.029.029,0,0,0-.024-.023h0a.029.029,0,0,0-.024-.024h0a.027.027,0,0,0-.023-.024h0a.029.029,0,0,0-.024-.023h0a.029.029,0,0,0-.024-.024h0a.025.025,0,0,0-.023-.023h0a.026.026,0,0,0-.023-.024h0a.029.029,0,0,0-.024-.024h0a.027.027,0,0,0-.023-.024h0a.029.029,0,0,0-.024-.023h0a.029.029,0,0,0-.024-.024h0a.025.025,0,0,0-.023-.022h0a.025.025,0,0,0-.023-.023h0a.029.029,0,0,0-.024-.024h0a.025.025,0,0,0-.023-.023h0a.027.027,0,0,0-.023-.024l-.026-.025c-.02-.028-.037-.023-.052.005l-.044.042-4.2,4.2C331.5-399.355,331.5-399.374,331.605-399.264Z" transform="translate(-321.005 419.438)" fill="#7bb73b"/>
        <path id="Path_12" data-name="Path 12" d="M349.87-399.456l-.984-.981-3.181-3.181c-.108-.108-.093-.108-.2,0l-2.052,2.052a.292.292,0,0,0-.078.091.337.337,0,0,0-.092.08l-1.956,1.956c-.1.1-.095.081,0,.175l4.17,4.172c.114.114.1.108.215,0l2.02-2.019c.029-.029.055-.06.082-.09a.37.37,0,0,1,.056-.046l.919-.908,1.069-1.069c.024-.024.047-.045.069-.07.042-.045.043-.058,0-.1C349.912-399.416,349.889-399.436,349.87-399.456Zm-3.992.308h0l-.009.02Zm-.009.02h0l.011.006Z" transform="translate(-320.264 419.434)" fill="#868e95"/>
        <path id="Path_13" data-name="Path 13" d="M339.6-399.686v.051C339.623-399.651,339.628-399.667,339.6-399.686Z" transform="translate(-320.391 419.739)" fill="#fff"/>
        <g id="Group_1" data-name="Group 1" transform="translate(36.914 11.351)">
          <path id="Path_14" data-name="Path 14" d="M362.09-387.157a4.151,4.151,0,0,0,1.26,1.48,5.467,5.467,0,0,0,1.843.839,8.71,8.71,0,0,0,2.191.273,11.481,11.481,0,0,0,1.643-.127,5.7,5.7,0,0,0,1.643-.493,3.58,3.58,0,0,0,1.277-1,2.518,2.518,0,0,0,.511-1.625,2.285,2.285,0,0,0-.675-1.722,5.337,5.337,0,0,0-1.771-1.1,17.672,17.672,0,0,0-2.483-.767q-1.388-.323-2.812-.73a24.9,24.9,0,0,1-2.848-.894,9.815,9.815,0,0,1-2.483-1.37,6.441,6.441,0,0,1-1.77-2.1,6.372,6.372,0,0,1-.676-3.049,6.837,6.837,0,0,1,.861-3.488,7.776,7.776,0,0,1,2.246-2.464,9.782,9.782,0,0,1,3.135-1.455,13.353,13.353,0,0,1,3.5-.475,16.574,16.574,0,0,1,3.926.456,9.793,9.793,0,0,1,3.336,1.479,7.486,7.486,0,0,1,2.325,2.611,8.014,8.014,0,0,1,.861,3.852h-5.553a4.616,4.616,0,0,0-.493-1.937,3.2,3.2,0,0,0-1.114-1.205,4.688,4.688,0,0,0-1.588-.621,9.822,9.822,0,0,0-1.953-.183,6.784,6.784,0,0,0-1.388.146,3.726,3.726,0,0,0-1.259.511,3.175,3.175,0,0,0-.931.913,2.455,2.455,0,0,0-.366,1.388,2.335,2.335,0,0,0,.293,1.241,2.608,2.608,0,0,0,1.15.877,14.6,14.6,0,0,0,2.367.8q1.514.4,3.962,1.022.73.147,2.026.529a9.753,9.753,0,0,1,2.574,1.224,7.789,7.789,0,0,1,2.209,2.246,6.39,6.39,0,0,1,.931,3.6,7.944,7.944,0,0,1-.694,3.323,7.216,7.216,0,0,1-2.063,2.647,9.912,9.912,0,0,1-3.4,1.734,16.05,16.05,0,0,1-4.693.621,16.467,16.467,0,0,1-4.181-.529,10.512,10.512,0,0,1-3.578-1.661,8.2,8.2,0,0,1-2.464-2.884,8.608,8.608,0,0,1-.876-4.162h5.549A4.8,4.8,0,0,0,362.09-387.157Z" transform="translate(-356.053 407.8)" fill="#00346d"/>
          <path id="Path_15" data-name="Path 15" d="M383.354-400.124v2.409h.073a5.7,5.7,0,0,1,2.409-2.226,7.4,7.4,0,0,1,3.213-.694,8.178,8.178,0,0,1,3.834.839,7.934,7.934,0,0,1,2.665,2.228,9.394,9.394,0,0,1,1.57,3.228,14.335,14.335,0,0,1,.511,3.852,12.975,12.975,0,0,1-.511,3.651,9.277,9.277,0,0,1-1.552,3.1,7.676,7.676,0,0,1-2.592,2.152,7.806,7.806,0,0,1-3.633.8,7.36,7.36,0,0,1-3.228-.711,6.127,6.127,0,0,1-2.429-2.1h-.072v8.946h-5.189v-25.481Zm6.736,14.971a4.165,4.165,0,0,0,1.388-1.333,5.5,5.5,0,0,0,.753-1.917,11.289,11.289,0,0,0,.215-2.228,10.406,10.406,0,0,0-.238-2.228,5.941,5.941,0,0,0-.784-1.953,4.363,4.363,0,0,0-1.406-1.387,3.921,3.921,0,0,0-2.1-.529,4,4,0,0,0-2.136.529,4.267,4.267,0,0,0-1.387,1.369,5.734,5.734,0,0,0-.753,1.937,11.624,11.624,0,0,0-.215,2.26,10.544,10.544,0,0,0,.237,2.228,5.771,5.771,0,0,0,.767,1.917,4.424,4.424,0,0,0,5.659,1.333Z" transform="translate(-354.35 408.316)" fill="#00346d"/>
          <path id="Path_16" data-name="Path 16" d="M399.228-397.349a6.229,6.229,0,0,1,2.045-1.937,8.94,8.94,0,0,1,2.8-1.041,15.921,15.921,0,0,1,3.121-.31,21.178,21.178,0,0,1,2.884.2,8.841,8.841,0,0,1,2.666.784,5.246,5.246,0,0,1,1.972,1.625,4.536,4.536,0,0,1,.766,2.757v9.822a19.79,19.79,0,0,0,.146,2.447,4.413,4.413,0,0,0,.511,1.752h-5.261a7.347,7.347,0,0,1-.238-.894,7.989,7.989,0,0,1-.128-.931,6.738,6.738,0,0,1-2.921,1.788,11.693,11.693,0,0,1-3.432.511,9.269,9.269,0,0,1-2.52-.323,5.784,5.784,0,0,1-2.045-1.022,4.752,4.752,0,0,1-1.369-1.753,5.926,5.926,0,0,1-.493-2.519,5.51,5.51,0,0,1,.566-2.647,4.726,4.726,0,0,1,1.46-1.661,6.553,6.553,0,0,1,2.045-.931,21.891,21.891,0,0,1,2.319-.493q1.169-.179,2.3-.287a13.627,13.627,0,0,0,2.008-.323,3.5,3.5,0,0,0,1.388-.646,1.4,1.4,0,0,0,.475-1.222,2.733,2.733,0,0,0-.274-1.333,2.007,2.007,0,0,0-.73-.767,2.889,2.889,0,0,0-1.059-.365,8.782,8.782,0,0,0-1.291-.091,3.94,3.94,0,0,0-2.409.658,2.933,2.933,0,0,0-1.022,2.191h-5.19a6.026,6.026,0,0,1,.913-3.039Zm10.241,7.317a8.3,8.3,0,0,1-1.059.273q-.565.108-1.184.183t-1.242.183a9.29,9.29,0,0,0-1.15.292,3.427,3.427,0,0,0-.986.493,2.367,2.367,0,0,0-.676.786,2.534,2.534,0,0,0-.255,1.2,2.458,2.458,0,0,0,.255,1.169,1.971,1.971,0,0,0,.694.753,2.956,2.956,0,0,0,1.022.383,6.563,6.563,0,0,0,1.205.108,4.572,4.572,0,0,0,2.373-.511,3.417,3.417,0,0,0,1.242-1.223,3.906,3.906,0,0,0,.493-1.442,9.873,9.873,0,0,0,.091-1.169v-1.937a2.331,2.331,0,0,1-.824.46Z" transform="translate(-352.882 408.316)" fill="#00346d"/>
          <path id="Path_17" data-name="Path 17" d="M421.412-400.124v3.5h.073a6.383,6.383,0,0,1,.986-1.625,6.486,6.486,0,0,1,1.424-1.277,6.976,6.976,0,0,1,1.722-.822,6.212,6.212,0,0,1,1.9-.292,4.035,4.035,0,0,1,1.132.183v4.819c-.243-.048-.538-.09-.876-.127a9.438,9.438,0,0,0-.986-.055,5.533,5.533,0,0,0-2.41.475,4.2,4.2,0,0,0-1.588,1.291,5.211,5.211,0,0,0-.861,1.918,10.427,10.427,0,0,0-.256,2.367v8.508h-5.19v-18.867Z" transform="translate(-351.454 408.316)" fill="#00346d"/>
          <rect id="Rectangle_1" data-name="Rectangle 1" width="5.185" height="18.877" transform="translate(78.86 8.192)" fill="#00346d"/>
          <path id="Path_18" data-name="Path 18" d="M447.967-399.76v3.468h-3.8v9.348a2.533,2.533,0,0,0,.438,1.752,2.528,2.528,0,0,0,1.752.439c.293,0,.573-.013.841-.037a7.347,7.347,0,0,0,.766-.108v4.016a12.514,12.514,0,0,1-1.46.146q-.8.036-1.57.037a15.023,15.023,0,0,1-2.282-.165,5.382,5.382,0,0,1-1.9-.639,3.376,3.376,0,0,1-1.3-1.35,4.843,4.843,0,0,1-.475-2.3v-11.139h-3.14v-3.468h3.14v-5.659h5.186v5.659Z" transform="translate(-349.981 407.952)" fill="#00346d"/>
          <path id="Path_19" data-name="Path 19" d="M457.546-375.659a7.526,7.526,0,0,1-4.162.986q-.8,0-1.588-.055t-1.593-.128v-4.272l1.5.146a10.9,10.9,0,0,0,1.533.037,2.014,2.014,0,0,0,1.515-.8,2.573,2.573,0,0,0,.493-1.533,3.1,3.1,0,0,0-.215-1.169l-6.609-17.708h5.514l4.272,12.926h.073L462.4-400.16h5.368l-7.881,21.214A6.393,6.393,0,0,1,457.546-375.659Z" transform="translate(-349.024 408.352)" fill="#00346d"/>
          <circle id="Ellipse_1" data-name="Ellipse 1" cx="2.599" cy="2.599" r="2.599" transform="translate(78.88)" fill="#00346d"/>
        </g>
      </g>
      <g id="Group_547" data-name="Group 547" transform="translate(5913.139 -568)">
        <line id="Line_71" data-name="Line 71" y2="43.025" transform="translate(0 1.051)" fill="#fff" stroke="#6d6f72" stroke-miterlimit="10" stroke-width="0.5"/>
        <g id="Group_546" data-name="Group 546" transform="translate(7.571)">
          <ellipse id="Ellipse_48" data-name="Ellipse 48" cx="22.564" cy="22.564" rx="22.564" ry="22.564" fill="#00346d" stroke="#fff" stroke-width="2"/>
          <g id="Group_530" data-name="Group 530" transform="translate(22.335 22.778)">
            <path id="Path_661" data-name="Path 661" d="M554.2,120.794v.7h-.24v-.7l-.595-1.063h.211a.074.074,0,0,1,.051.017.123.123,0,0,1,.032.043l.353.657c.014.03.027.059.039.086s.022.054.031.079c.008-.026.018-.053.029-.079s.024-.056.038-.086l.352-.657a.165.165,0,0,1,.031-.041.071.071,0,0,1,.05-.019h.213Z" transform="translate(-553.366 -119.712)" fill="#fff"/>
            <path id="Path_662" data-name="Path 662" d="M560.466,121.277v.212h-1.006v-1.758h1.006v.212H559.7v.557h.615v.2H559.7v.573Z" transform="translate(-557.515 -119.712)" fill="#fff"/>
            <path id="Path_663" data-name="Path 663" d="M565.456,121.489h-.185a.078.078,0,0,1-.052-.017.1.1,0,0,1-.029-.044l-.144-.408h-.716l-.144.408a.1.1,0,0,1-.029.042.076.076,0,0,1-.052.019h-.185l.647-1.758h.243Zm-.476-.655-.241-.682a1.6,1.6,0,0,1-.052-.176c-.008.035-.017.068-.026.1s-.017.057-.025.081l-.24.679Z" transform="translate(-560.553 -119.712)" fill="#fff"/>
            <path id="Path_664" data-name="Path 664" d="M571.581,121.489h-.215a.1.1,0,0,1-.094-.055l-.4-.61a.127.127,0,0,0-.042-.044.141.141,0,0,0-.068-.013H570.6v.721h-.241v-1.758h.468a.94.94,0,0,1,.271.035.515.515,0,0,1,.188.1.4.4,0,0,1,.11.155.555.555,0,0,1,.035.2.566.566,0,0,1-.026.173.463.463,0,0,1-.076.145.5.5,0,0,1-.123.111.566.566,0,0,1-.164.071.258.258,0,0,1,.078.082Zm-.758-.911a.491.491,0,0,0,.163-.025.323.323,0,0,0,.118-.069.285.285,0,0,0,.071-.106.381.381,0,0,0,.024-.137.281.281,0,0,0-.092-.229.423.423,0,0,0-.276-.077H570.6v.643Z" transform="translate(-564.941 -119.712)" fill="#fff"/>
            <path id="Path_665" data-name="Path 665" d="M576.384,119.976a.093.093,0,0,1-.023.031.049.049,0,0,1-.032.01.08.08,0,0,1-.046-.02c-.017-.014-.039-.029-.065-.046a.488.488,0,0,0-.093-.045.366.366,0,0,0-.13-.02.347.347,0,0,0-.125.02.261.261,0,0,0-.09.055.234.234,0,0,0-.055.082.278.278,0,0,0-.018.1.2.2,0,0,0,.033.117.294.294,0,0,0,.088.08.652.652,0,0,0,.123.057l.141.051a1.423,1.423,0,0,1,.141.06.506.506,0,0,1,.124.086.4.4,0,0,1,.087.127.453.453,0,0,1,.034.184.642.642,0,0,1-.037.218.524.524,0,0,1-.107.178.5.5,0,0,1-.173.119.588.588,0,0,1-.232.043.68.68,0,0,1-.151-.017.706.706,0,0,1-.139-.046.685.685,0,0,1-.122-.072.6.6,0,0,1-.1-.095l.069-.125a.1.1,0,0,1,.024-.025.057.057,0,0,1,.032-.01.09.09,0,0,1,.055.027.965.965,0,0,0,.077.059.585.585,0,0,0,.11.06.4.4,0,0,0,.155.027.386.386,0,0,0,.133-.021.272.272,0,0,0,.1-.061.269.269,0,0,0,.061-.1.351.351,0,0,0,.021-.125.221.221,0,0,0-.033-.126.271.271,0,0,0-.087-.082.6.6,0,0,0-.123-.056l-.141-.048a1.32,1.32,0,0,1-.141-.058.45.45,0,0,1-.123-.086.382.382,0,0,1-.087-.133.519.519,0,0,1-.033-.2.5.5,0,0,1,.034-.182.468.468,0,0,1,.1-.156.486.486,0,0,1,.16-.109.54.54,0,0,1,.217-.041.659.659,0,0,1,.252.047.576.576,0,0,1,.2.136Z" transform="translate(-568.38 -119.67)" fill="#fff"/>
          </g>
          <g id="Group_532" data-name="Group 532" transform="translate(9.681 36.424)">
            <g id="Group_531" data-name="Group 531" transform="translate(0 0)">
              <path id="Path_666" data-name="Path 666" d="M514.382,162.45a.733.733,0,0,1,.235.037.549.549,0,0,1,.188.108.5.5,0,0,1,.125.173.567.567,0,0,1,.046.232.614.614,0,0,1-.033.2.831.831,0,0,1-.09.18,1.33,1.33,0,0,1-.131.167q-.074.081-.157.165l-.52.533a1.018,1.018,0,0,1,.112-.024.683.683,0,0,1,.109-.009h.663a.086.086,0,0,1,.064.024.082.082,0,0,1,.023.061v.149H513.7v-.084a.151.151,0,0,1,.01-.054.134.134,0,0,1,.034-.051l.633-.636c.052-.053.1-.1.144-.154a1.1,1.1,0,0,0,.111-.148.7.7,0,0,0,.071-.151.524.524,0,0,0,.025-.164.39.39,0,0,0-.027-.152.3.3,0,0,0-.076-.108.327.327,0,0,0-.113-.064.45.45,0,0,0-.139-.021.412.412,0,0,0-.138.022.37.37,0,0,0-.2.154.359.359,0,0,0-.048.119.11.11,0,0,1-.033.058.09.09,0,0,1-.058.018h-.014l-.017,0-.129-.022a.732.732,0,0,1,.075-.24.565.565,0,0,1,.14-.174.6.6,0,0,1,.194-.107A.753.753,0,0,1,514.382,162.45Z" transform="translate(-513.696 -162.45)" fill="#fff"/>
              <path id="Path_667" data-name="Path 667" d="M520.655,163.462a1.6,1.6,0,0,1-.056.449.934.934,0,0,1-.152.314.613.613,0,0,1-.228.185.668.668,0,0,1-.282.061.66.66,0,0,1-.282-.061.611.611,0,0,1-.227-.185.924.924,0,0,1-.152-.314,1.857,1.857,0,0,1,0-.9.927.927,0,0,1,.152-.315.607.607,0,0,1,.227-.186.661.661,0,0,1,.282-.061.668.668,0,0,1,.282.061.61.61,0,0,1,.228.186.938.938,0,0,1,.152.315A1.607,1.607,0,0,1,520.655,163.462Zm-.256,0a1.619,1.619,0,0,0-.038-.38.762.762,0,0,0-.1-.248.384.384,0,0,0-.148-.135.4.4,0,0,0-.351,0,.382.382,0,0,0-.148.135.771.771,0,0,0-.1.248,1.921,1.921,0,0,0,0,.76.767.767,0,0,0,.1.247.382.382,0,0,0,.148.135.4.4,0,0,0,.351,0,.384.384,0,0,0,.148-.135.759.759,0,0,0,.1-.247A1.612,1.612,0,0,0,520.4,163.462Z" transform="translate(-517.457 -162.45)" fill="#fff"/>
              <path id="Path_668" data-name="Path 668" d="M525.662,164.3h.425v-1.349c0-.04,0-.082,0-.123l-.353.3a.114.114,0,0,1-.028.016.092.092,0,0,1-.026,0,.076.076,0,0,1-.037-.009.075.075,0,0,1-.025-.021l-.077-.106.588-.51h.2V164.3h.389v.188h-1.06Z" transform="translate(-521.765 -162.488)" fill="#fff"/>
              <path id="Path_669" data-name="Path 669" d="M532.08,163.462a1.593,1.593,0,0,1-.056.449.939.939,0,0,1-.152.314.611.611,0,0,1-.229.185.687.687,0,0,1-.564,0,.609.609,0,0,1-.227-.185.934.934,0,0,1-.152-.314,1.874,1.874,0,0,1,0-.9.937.937,0,0,1,.152-.315.605.605,0,0,1,.227-.186.684.684,0,0,1,.564,0,.608.608,0,0,1,.229.186.942.942,0,0,1,.152.315A1.6,1.6,0,0,1,532.08,163.462Zm-.255,0a1.619,1.619,0,0,0-.038-.38.76.76,0,0,0-.1-.248.382.382,0,0,0-.148-.135.4.4,0,0,0-.35,0,.381.381,0,0,0-.148.135.768.768,0,0,0-.1.248,1.906,1.906,0,0,0,0,.76.764.764,0,0,0,.1.247.382.382,0,0,0,.148.135.4.4,0,0,0,.35,0,.383.383,0,0,0,.148-.135.756.756,0,0,0,.1-.247A1.612,1.612,0,0,0,531.824,163.462Z" transform="translate(-525.238 -162.45)" fill="#fff"/>
              <path id="Path_670" data-name="Path 670" d="M538.892,165.8h.682v.208h-.682Z" transform="translate(-530.855 -164.731)" fill="#fff"/>
              <path id="Path_671" data-name="Path 671" d="M545.654,162.45a.73.73,0,0,1,.235.037.55.55,0,0,1,.188.108.512.512,0,0,1,.125.173.566.566,0,0,1,.045.232.619.619,0,0,1-.033.2.828.828,0,0,1-.09.18,1.334,1.334,0,0,1-.13.167q-.074.081-.157.165l-.52.533a1.033,1.033,0,0,1,.112-.024.69.69,0,0,1,.109-.009h.662a.086.086,0,0,1,.064.024.083.083,0,0,1,.023.061v.149h-1.319v-.084a.159.159,0,0,1,.01-.054.141.141,0,0,1,.034-.051l.634-.636q.078-.08.144-.154a1.121,1.121,0,0,0,.111-.148.705.705,0,0,0,.071-.151.529.529,0,0,0,.024-.164.39.39,0,0,0-.027-.152.3.3,0,0,0-.076-.108.325.325,0,0,0-.113-.064.451.451,0,0,0-.14-.021.409.409,0,0,0-.138.022.368.368,0,0,0-.2.154.352.352,0,0,0-.048.119.11.11,0,0,1-.033.058.089.089,0,0,1-.058.018h-.014l-.017,0-.129-.022a.738.738,0,0,1,.075-.24.566.566,0,0,1,.14-.174.6.6,0,0,1,.194-.107A.75.75,0,0,1,545.654,162.45Z" transform="translate(-534.993 -162.45)" fill="#fff"/>
              <path id="Path_672" data-name="Path 672" d="M551.925,163.462a1.586,1.586,0,0,1-.056.449.938.938,0,0,1-.152.314.61.61,0,0,1-.229.185.687.687,0,0,1-.564,0,.607.607,0,0,1-.227-.185.924.924,0,0,1-.152-.314,1.857,1.857,0,0,1,0-.9.927.927,0,0,1,.152-.315.6.6,0,0,1,.227-.186.684.684,0,0,1,.564,0,.607.607,0,0,1,.229.186.941.941,0,0,1,.152.315A1.6,1.6,0,0,1,551.925,163.462Zm-.255,0a1.623,1.623,0,0,0-.038-.38.764.764,0,0,0-.1-.248.386.386,0,0,0-.148-.135.4.4,0,0,0-.351,0,.38.38,0,0,0-.148.135.769.769,0,0,0-.1.248,1.921,1.921,0,0,0,0,.76.766.766,0,0,0,.1.247.38.38,0,0,0,.148.135.4.4,0,0,0,.351,0,.386.386,0,0,0,.148-.135.76.76,0,0,0,.1-.247A1.615,1.615,0,0,0,551.669,163.462Z" transform="translate(-538.753 -162.45)" fill="#fff"/>
              <path id="Path_673" data-name="Path 673" d="M557.079,162.45a.729.729,0,0,1,.235.037.548.548,0,0,1,.188.108.51.51,0,0,1,.125.173.571.571,0,0,1,.045.232.622.622,0,0,1-.033.2.856.856,0,0,1-.09.18,1.343,1.343,0,0,1-.131.167q-.074.081-.157.165l-.52.533a1.045,1.045,0,0,1,.112-.024.685.685,0,0,1,.109-.009h.662a.086.086,0,0,1,.063.024.082.082,0,0,1,.023.061v.149h-1.319v-.084a.149.149,0,0,1,.01-.054.137.137,0,0,1,.034-.051l.634-.636q.079-.08.143-.154a1.067,1.067,0,0,0,.111-.148.7.7,0,0,0,.071-.151.528.528,0,0,0,.025-.164.391.391,0,0,0-.028-.152.3.3,0,0,0-.076-.108.326.326,0,0,0-.113-.064.452.452,0,0,0-.14-.021.413.413,0,0,0-.138.022.374.374,0,0,0-.112.061.366.366,0,0,0-.083.093.349.349,0,0,0-.048.119.112.112,0,0,1-.033.058.089.089,0,0,1-.058.018h-.014l-.017,0-.129-.022a.734.734,0,0,1,.075-.24.569.569,0,0,1,.14-.174.6.6,0,0,1,.195-.107A.75.75,0,0,1,557.079,162.45Z" transform="translate(-542.773 -162.45)" fill="#fff"/>
              <path id="Path_674" data-name="Path 674" d="M563.35,163.462a1.6,1.6,0,0,1-.056.449.94.94,0,0,1-.152.314.614.614,0,0,1-.229.185.688.688,0,0,1-.565,0,.613.613,0,0,1-.227-.185.926.926,0,0,1-.152-.314,1.859,1.859,0,0,1,0-.9.929.929,0,0,1,.152-.315.609.609,0,0,1,.227-.186.684.684,0,0,1,.565,0,.61.61,0,0,1,.229.186.943.943,0,0,1,.152.315A1.607,1.607,0,0,1,563.35,163.462Zm-.255,0a1.626,1.626,0,0,0-.038-.38.763.763,0,0,0-.1-.248.386.386,0,0,0-.148-.135.4.4,0,0,0-.351,0,.384.384,0,0,0-.148.135.779.779,0,0,0-.1.248,1.918,1.918,0,0,0,0,.76.776.776,0,0,0,.1.247.384.384,0,0,0,.148.135.4.4,0,0,0,.351,0,.386.386,0,0,0,.148-.135.759.759,0,0,0,.1-.247A1.618,1.618,0,0,0,563.094,163.462Z" transform="translate(-546.533 -162.45)" fill="#fff"/>
            </g>
          </g>
          <g id="Group_534" data-name="Group 534" transform="translate(10.061 5.026)">
            <g id="Group_533" data-name="Group 533">
              <path id="Path_675" data-name="Path 675" d="M514.886,66.916a1.993,1.993,0,0,1,.057-.475A2.163,2.163,0,0,1,515.1,66a2.006,2.006,0,0,1,.247-.383,1.809,1.809,0,0,1,.314-.3,1.411,1.411,0,0,1,.364-.2,1.134,1.134,0,0,1,.4-.071.6.6,0,0,1,.371.1.33.33,0,0,1,.133.279.546.546,0,0,1-.019.142.684.684,0,0,1-.055.143.989.989,0,0,1-.085.136.644.644,0,0,1-.107.114.268.268,0,0,1-.155-.081.3.3,0,0,1-.083-.157.956.956,0,0,0,.191-.209.374.374,0,0,0,.07-.2c0-.1-.063-.152-.189-.152a.449.449,0,0,0-.164.033.836.836,0,0,0-.171.092,1.1,1.1,0,0,0-.167.141,1.371,1.371,0,0,0-.15.183,2.446,2.446,0,0,0-.479,1.411.9.9,0,0,0,.079.411.311.311,0,0,0,.21.183,1.22,1.22,0,0,0,.376-.189,4.429,4.429,0,0,0,.5-.4.142.142,0,0,1,.041.073q-.1.13-.207.25t-.212.22a2.35,2.35,0,0,1-.207.175,1.145,1.145,0,0,1-.188.116.842.842,0,0,1-.648-.238A1,1,0,0,1,514.886,66.916Z" transform="translate(-514.886 -64.717)" fill="#fff"/>
              <path id="Path_676" data-name="Path 676" d="M521.873,68.128a1.178,1.178,0,0,1-.076.367.8.8,0,0,1-.178.269,1.279,1.279,0,0,1-.281.209,3.053,3.053,0,0,1-.386.18c0,.014,0,.028,0,.043s0,.03,0,.047a.684.684,0,0,0,.007.093.369.369,0,0,0,.024.09.165.165,0,0,0,.048.067.118.118,0,0,0,.079.026.43.43,0,0,0,.182-.041.942.942,0,0,0,.171-.1,1.376,1.376,0,0,0,.152-.131c.047-.047.089-.09.126-.129a.768.768,0,0,1,.059.058,1.661,1.661,0,0,1-.34.343.966.966,0,0,1-.35.174.567.567,0,0,1-.371-.174.507.507,0,0,1-.133-.353,1.1,1.1,0,0,1,.04-.288,1.4,1.4,0,0,1,.11-.283,1.627,1.627,0,0,1,.166-.257,1.384,1.384,0,0,1,.2-.21.984.984,0,0,1,.225-.141.552.552,0,0,1,.229-.052A.462.462,0,0,1,521.873,68.128Zm-.238.114a.52.52,0,0,0-.193.076.788.788,0,0,0-.187.165,1.306,1.306,0,0,0-.161.241,1.373,1.373,0,0,0-.114.3,1.544,1.544,0,0,0,.459-.34A.706.706,0,0,0,521.635,68.242Z" transform="translate(-518.78 -66.684)" fill="#fff"/>
              <path id="Path_677" data-name="Path 677" d="M524.854,66.691a1.8,1.8,0,0,1,.072-.426q.072-.274.2-.64.214-.583.4-.971a3.048,3.048,0,0,1,.367-.605.422.422,0,0,1,.1.034c.04.019.08.038.119.061a.974.974,0,0,1,.105.067.265.265,0,0,1,.06.055,4.245,4.245,0,0,0-.472.683,5.626,5.626,0,0,0-.373.838,6.972,6.972,0,0,0-.221.733,2.491,2.491,0,0,0-.076.543v.073a.119.119,0,0,0,0,.027.275.275,0,0,1-.083-.024.089.089,0,0,1-.045-.041.2.2,0,0,0-.038-.05.4.4,0,0,0-.055-.05.189.189,0,0,1-.052-.109A.872.872,0,0,1,524.854,66.691Z" transform="translate(-521.674 -64.04)" fill="#fff"/>
              <path id="Path_678" data-name="Path 678" d="M528.317,68.128a1.178,1.178,0,0,1-.076.367.8.8,0,0,1-.178.269,1.279,1.279,0,0,1-.281.209,3.063,3.063,0,0,1-.386.18c0,.014,0,.028,0,.043s0,.03,0,.047a.726.726,0,0,0,.007.093.353.353,0,0,0,.024.09.169.169,0,0,0,.048.067.118.118,0,0,0,.079.026.429.429,0,0,0,.183-.041.938.938,0,0,0,.171-.1,1.37,1.37,0,0,0,.152-.131q.071-.071.126-.129a.724.724,0,0,1,.059.058,1.661,1.661,0,0,1-.34.343.967.967,0,0,1-.35.174.567.567,0,0,1-.371-.174.508.508,0,0,1-.133-.353,1.109,1.109,0,0,1,.04-.288,1.387,1.387,0,0,1,.111-.283,1.6,1.6,0,0,1,.165-.257,1.363,1.363,0,0,1,.2-.21.977.977,0,0,1,.224-.141.553.553,0,0,1,.229-.052A.461.461,0,0,1,528.317,68.128Zm-.238.114a.518.518,0,0,0-.193.076.8.8,0,0,0-.188.165,1.315,1.315,0,0,0-.16.241,1.4,1.4,0,0,0-.114.3,1.541,1.541,0,0,0,.458-.34A.706.706,0,0,0,528.079,68.242Z" transform="translate(-523.169 -66.684)" fill="#fff"/>
              <path id="Path_679" data-name="Path 679" d="M531.721,66.915a1.713,1.713,0,0,0,.31-.274,2.674,2.674,0,0,0,.276-.362,2.617,2.617,0,0,0,.21-.405,1.842,1.842,0,0,0,.117-.4.055.055,0,0,0-.045-.055q-.048,0-.133.085a2.359,2.359,0,0,0-.186.216c-.068.087-.136.185-.207.293s-.134.216-.191.323-.106.207-.147.3a.765.765,0,0,0-.067.226c-.023,0-.042-.023-.058-.069a.125.125,0,0,0-.024-.036.373.373,0,0,0-.055-.047.276.276,0,0,1-.034-.033.161.161,0,0,1-.024-.033.219.219,0,0,1-.014-.09,2.33,2.33,0,0,1,.052-.458,4.983,4.983,0,0,1,.136-.521,5.321,5.321,0,0,1,.435-.993,2.467,2.467,0,0,1,.247-.362.68.68,0,0,1,.234-.2.519.519,0,0,1,.083.034.9.9,0,0,1,.1.055c.032.02.063.041.092.062a.377.377,0,0,1,.063.055,2.8,2.8,0,0,0-.657.788,4.713,4.713,0,0,0-.453,1.136,3.19,3.19,0,0,1,.457-.641,1.5,1.5,0,0,1,.228-.2.344.344,0,0,1,.181-.076.335.335,0,0,1,.107.048.423.423,0,0,1,.093.085.507.507,0,0,1,.069.107.369.369,0,0,1,.035.119,1.238,1.238,0,0,1-.05.308,1.91,1.91,0,0,1-.124.322,2.549,2.549,0,0,1-.176.3,1.719,1.719,0,0,1-.207.254,1.152,1.152,0,0,1-.218.174.4.4,0,0,1-.206.066.453.453,0,0,1-.084-.009.4.4,0,0,1-.079-.024.277.277,0,0,1-.059-.033A.046.046,0,0,1,531.721,66.915Z" transform="translate(-526.166 -64.018)" fill="#fff"/>
              <path id="Path_680" data-name="Path 680" d="M535.936,69.421c.011-.067.032-.155.06-.264s.063-.226.1-.348.08-.247.124-.371.086-.236.128-.335a1.64,1.64,0,0,1,.079-.167.479.479,0,0,1,.076-.1.629.629,0,0,1,.1.024.77.77,0,0,1,.1.041.817.817,0,0,1,.086.05.3.3,0,0,1,.059.05,1.262,1.262,0,0,0-.164.252,2.732,2.732,0,0,0-.143.362q.186-.165.329-.317a2.558,2.558,0,0,0,.267-.338.117.117,0,0,1,.072-.017.287.287,0,0,1,.093.016.113.113,0,0,1,.062.043.926.926,0,0,0-.062.328.457.457,0,0,0,.045.228.253.253,0,0,1-.046.079.96.96,0,0,1-.1.11.551.551,0,0,1-.165-.133.562.562,0,0,1-.107-.184,2.428,2.428,0,0,0-.276.223,1.2,1.2,0,0,0-.195.241,1.469,1.469,0,0,0-.138.305c-.038.115-.074.252-.109.411a.26.26,0,0,1-.074-.023.642.642,0,0,1-.086-.046.6.6,0,0,1-.077-.059A.157.157,0,0,1,535.936,69.421Z" transform="translate(-529.221 -66.617)" fill="#fff"/>
              <path id="Path_681" data-name="Path 681" d="M541.423,68.265a.334.334,0,0,1,.081.012.447.447,0,0,1,.084.031.371.371,0,0,1,.064.04c.017.014.026.026.026.038q-.069.145-.128.291t-.1.281a2.346,2.346,0,0,0-.064.252,1.109,1.109,0,0,0-.022.2.523.523,0,0,0,.021.16.155.155,0,0,0,.069.091.36.36,0,0,1-.107.045.466.466,0,0,1-.117.017q-.186,0-.186-.255a1.629,1.629,0,0,1,.131-.538,2.029,2.029,0,0,1-.159.3,2.1,2.1,0,0,1-.183.245,1.1,1.1,0,0,1-.188.174.438.438,0,0,1-.174.08.24.24,0,0,1-.207-.116.513.513,0,0,1-.079-.3,1.136,1.136,0,0,1,.083-.409,1.847,1.847,0,0,1,.212-.4,1.513,1.513,0,0,1,.281-.307.471.471,0,0,1,.293-.123.264.264,0,0,1,.078.041.616.616,0,0,1,.083.072.579.579,0,0,1,.067.085.181.181,0,0,1,.031.074.622.622,0,0,0-.285.134,1.408,1.408,0,0,0-.266.274,1.608,1.608,0,0,0-.195.342.891.891,0,0,0-.076.341.077.077,0,0,0,.048.082.476.476,0,0,0,.231-.171,3.283,3.283,0,0,0,.318-.464l.078-.138c.029-.05.058-.1.088-.159s.059-.111.088-.167S541.4,68.318,541.423,68.265Z" transform="translate(-532.115 -66.786)" fill="#fff"/>
              <path id="Path_682" data-name="Path 682" d="M545.426,67.189a.231.231,0,0,1-.031-.088.577.577,0,0,1-.014-.115,1.168,1.168,0,0,0,.173.014h.151c.035-.068.072-.136.112-.2s.079-.129.117-.184a1.556,1.556,0,0,1,.107-.142.414.414,0,0,1,.078-.075.408.408,0,0,1,.088.012,1,1,0,0,1,.108.031c.037.013.07.026.1.04a.179.179,0,0,1,.062.041q-.1.131-.177.241t-.16.255h.139a1.038,1.038,0,0,0,.143-.01.129.129,0,0,1,.028.043.143.143,0,0,1,.01.054,1.136,1.136,0,0,1-.41.065q-.086.166-.153.33c-.045.109-.083.215-.114.316a2.927,2.927,0,0,0-.072.287,1.3,1.3,0,0,0-.026.242q0,.152.114.169a.788.788,0,0,0,.2-.052.639.639,0,0,0,.166-.1.148.148,0,0,1,.024.052.371.371,0,0,1-.07.072q-.05.041-.109.08a1.044,1.044,0,0,1-.114.067.3.3,0,0,1-.083.031.464.464,0,0,1-.172-.035.72.72,0,0,1-.157-.086.508.508,0,0,1-.115-.116.217.217,0,0,1-.045-.126,1.231,1.231,0,0,1,.023-.209c.015-.084.036-.175.064-.275s.059-.2.1-.31.077-.215.12-.321Z" transform="translate(-535.612 -65.637)" fill="#fff"/>
              <path id="Path_683" data-name="Path 683" d="M548.617,67.764a.628.628,0,0,1,.005-.077c0-.031.009-.072.018-.124s.022-.114.037-.188.034-.162.056-.265c0-.023.015-.06.031-.111a1.387,1.387,0,0,1,.064-.16,1.059,1.059,0,0,1,.1-.164.358.358,0,0,1,.136-.117.61.61,0,0,1,.155.07.527.527,0,0,1,.166.157,1.2,1.2,0,0,0-.133.179,1.848,1.848,0,0,0-.1.186q-.043.1-.079.2c-.024.069-.051.141-.081.217s-.048.13-.069.2a.748.748,0,0,0-.034.177q0,.062,0,.088t-.019.026a.2.2,0,0,1-.055-.017.326.326,0,0,1-.084-.054.364.364,0,0,1-.077-.091A.24.24,0,0,1,548.617,67.764Zm.659-1.5a.273.273,0,0,1,.01-.062.131.131,0,0,1-.029-.052.193.193,0,0,1-.012-.062.543.543,0,0,1,.009-.085c.006-.036.013-.074.023-.115s.02-.085.034-.13.028-.085.041-.122a.309.309,0,0,1,.1.022.8.8,0,0,1,.123.059.808.808,0,0,1,.113.079.457.457,0,0,1,.08.081c-.026.026-.059.06-.1.105s-.082.092-.121.141-.075.1-.107.139a.792.792,0,0,0-.062.093.132.132,0,0,1-.073-.036A.081.081,0,0,1,549.276,66.267Z" transform="translate(-537.857 -65.123)" fill="#fff"/>
              <path id="Path_684" data-name="Path 684" d="M551.338,67.78a.368.368,0,0,1,.169.122.633.633,0,0,1,.117.208,1.609,1.609,0,0,1-.117.225q-.08.131-.159.267c-.053.091-.1.177-.143.259a.643.643,0,0,0-.074.2c.037-.039.077-.085.122-.136s.088-.1.131-.155.082-.1.119-.141.065-.074.086-.1l.155-.16a2.4,2.4,0,0,1,.188-.173,1.412,1.412,0,0,1,.2-.138.375.375,0,0,1,.182-.057.2.2,0,0,1,.15.061.534.534,0,0,1,.095.126s-.009.011-.026.019a.291.291,0,0,0-.074.067,1.343,1.343,0,0,0-.108.171q-.06.108-.117.234a1.949,1.949,0,0,0-.095.257.869.869,0,0,0-.038.238.18.18,0,0,0,.022.111.085.085,0,0,0,.064.024.2.2,0,0,0,.079-.017.187.187,0,0,1,.066-.018.054.054,0,0,1,.022.03.109.109,0,0,1,.008.04.524.524,0,0,1-.065.048.858.858,0,0,1-.08.045.683.683,0,0,1-.081.034.217.217,0,0,1-.071.014.4.4,0,0,1-.164-.029.264.264,0,0,1-.1-.078.291.291,0,0,1-.05-.116.709.709,0,0,1-.014-.143.673.673,0,0,1,.007-.093.8.8,0,0,1,.027-.122c.014-.047.033-.1.059-.169s.057-.144.1-.236a.716.716,0,0,0-.093.048.9.9,0,0,0-.186.149,4.161,4.161,0,0,0-.292.307q-.129.152-.264.338c-.05.071-.095.132-.133.181a.386.386,0,0,1-.1.1.258.258,0,0,1-.107-.115.756.756,0,0,1-.052-.153.954.954,0,0,1,.019-.166c.013-.067.03-.141.052-.222s.049-.167.081-.257.068-.179.107-.269a3.639,3.639,0,0,1,.24-.476A.817.817,0,0,1,551.338,67.78Z" transform="translate(-539.278 -66.58)" fill="#fff"/>
              <path id="Path_685" data-name="Path 685" d="M554.38,70.517a.059.059,0,0,1,.014-.038.38.38,0,0,1,.031-.034.779.779,0,0,0,.071.058.611.611,0,0,0,.055.035.163.163,0,0,0,.053.017.556.556,0,0,0,.066,0,.669.669,0,0,0,.341-.095,1.121,1.121,0,0,0,.305-.274,2.044,2.044,0,0,0,.26-.438,3.917,3.917,0,0,0,.207-.586c-.027.028-.061.058-.1.092s-.082.065-.126.095-.087.057-.129.083a.755.755,0,0,1-.109.055.239.239,0,0,1-.109-.05.393.393,0,0,1-.088-.1.464.464,0,0,1-.058-.133.574.574,0,0,1-.021-.157.829.829,0,0,1,.05-.276,1.5,1.5,0,0,1,.133-.278,1.619,1.619,0,0,1,.195-.257,1.58,1.58,0,0,1,.238-.21,1.281,1.281,0,0,1,.256-.143.656.656,0,0,1,.253-.054.283.283,0,0,1,.181.05.3.3,0,0,1,.088.171.2.2,0,0,0-.1-.02.384.384,0,0,0-.192.065,1.344,1.344,0,0,0-.22.171,2.452,2.452,0,0,0-.223.241,2.416,2.416,0,0,0-.2.278,1.953,1.953,0,0,0-.138.276.668.668,0,0,0-.053.241.068.068,0,0,0,0,.029.012.012,0,0,0,.01.005.174.174,0,0,0,.085-.035c.036-.023.076-.052.121-.088a1.805,1.805,0,0,0,.139-.124c.048-.047.094-.095.138-.143a2.386,2.386,0,0,0,.271-.371,2.5,2.5,0,0,0,.195-.4.683.683,0,0,1,.165.031.259.259,0,0,1,.1.052q-.117.268-.188.452t-.122.324q-.094.248-.174.454t-.166.379a2.892,2.892,0,0,1-.183.324,2.363,2.363,0,0,1-.223.288.7.7,0,0,1-.133.115,1.007,1.007,0,0,1-.152.085.871.871,0,0,1-.152.052.606.606,0,0,1-.136.017.782.782,0,0,1-.169-.019.844.844,0,0,1-.16-.052.622.622,0,0,1-.129-.076A.275.275,0,0,1,554.38,70.517Z" transform="translate(-541.782 -66.617)" fill="#fff"/>
            </g>
          </g>
          <g id="Group_536" data-name="Group 536" transform="translate(5.137 3.142)">
            <g id="Group_535" data-name="Group 535" transform="translate(0 6.877)">
              <path id="Path_686" data-name="Path 686" d="M533.648,144.152h-3.824c-.1,0-.092.012-.092-.094q0-1.916,0-3.832c0-.1,0-.092.09-.091h3.824c.121,0,.109-.013.109.112v2.285c0,.114,0,.227,0,.341,0,.092,0,.185,0,.277s0,.158,0,.237c0,.153,0,.306,0,.459,0,.092,0,.184,0,.277l-.034.034A.168.168,0,0,0,533.648,144.152Z" transform="translate(-520.072 -120.847)" fill="#8f969d"/>
              <path id="Path_687" data-name="Path 687" d="M533.671,83.74h-3.849c-.1,0-.087.013-.087-.09q0-1.916,0-3.832c0-.018,0-.037,0-.055s.007-.038.037-.04h3.9c.026,0,.054.009.075-.014l.022.023c-.024.027-.013.061-.013.091q0,1.912,0,3.824c0,.021,0,.042,0,.063s0,.029-.026.03Z" transform="translate(-520.074 -79.696)" fill="#6e7780"/>
              <path id="Path_688" data-name="Path 688" d="M499.639,94.815h3.752c.1,0,.089-.014.089.088q0,1.916,0,3.832c0,.11.013.1-.1.1h-3.9a.023.023,0,0,1-.024-.026c0-.016,0-.032,0-.048q0-1.654,0-3.308c0-.185,0-.37,0-.555,0-.028.008-.059-.015-.083l.011-.011a.061.061,0,0,0,.044.015Z" transform="translate(-499.449 -89.974)" fill="#fff"/>
              <path id="Path_689" data-name="Path 689" d="M518.584,83.21q0,.234,0,.468c0,.033,0,.037-.036.038H514.66c-.112,0-.1.016-.1-.1q0-1.7,0-3.4c0-.169,0-.338,0-.508l-.022-.02.022-.023.019.024h3.951c.042,0,.046.006.046.045,0,.3,0,.608,0,.912Q518.584,81.933,518.584,83.21Z" transform="translate(-509.728 -79.672)" fill="#6e7780"/>
              <path id="Path_690" data-name="Path 690" d="M518.617,125.043a.158.158,0,0,1,.01.083q0,.928,0,1.856c0,.254,0,.507,0,.761q0,.619,0,1.238c0,.016,0,.032,0,.048s-.008.031-.035.032H514.7c-.1,0-.092.011-.092-.094,0-.3,0-.6,0-.9,0-.235,0-.47,0-.706q0-1.114,0-2.229a.209.209,0,0,1,.008-.09Z" transform="translate(-509.771 -110.57)" fill="#fff"/>
              <path id="Path_691" data-name="Path 691" d="M514.692,140.137h3.9c.024,0,.031.009.032.035,0,.008,0,.016,0,.024q0,.444,0,.888c0,.137,0,.275,0,.412s0,.27,0,.4c0,.153,0,.307,0,.46q0,.853,0,1.706a.21.21,0,0,1,0,.078h-4.007c0-.034-.005-.074-.005-.113,0-.243,0-.486,0-.729,0-.2,0-.4,0-.6q0-1.225,0-2.451c0-.024,0-.048,0-.071s.006-.037.037-.039Z" transform="translate(-509.772 -120.849)" fill="#fff"/>
              <path id="Path_692" data-name="Path 692" d="M529.828,113.961h-.063c-.018,0-.03-.007-.031-.027s0-.042,0-.063q0-1.911,0-3.823c0-.021,0-.042,0-.063s.008-.038.037-.039h3.879c.114,0,.1-.014.1.1q0,1.943,0,3.887a.173.173,0,0,1-.005.026l-.079,0Z" transform="translate(-520.073 -100.287)" fill="#7c868c"/>
              <path id="Path_693" data-name="Path 693" d="M533.674,98.865h-3.84c-.113,0-.1.012-.1-.1q0-1.911,0-3.824c0-.026,0-.052,0-.089h3.91c.117,0,.105-.012.105.107q0,1.63,0,3.261c0,.2,0,.4,0,.6,0,.042,0,.045-.044.046Z" transform="translate(-520.074 -90.007)" fill="#727c83"/>
              <path id="Path_694" data-name="Path 694" d="M514.618,94.853a.178.178,0,0,1,.07-.005h3.91a.027.027,0,0,1,.029.03c0,.034,0,.069,0,.1q0,.765,0,1.53c0,.367,0,.735,0,1.1q0,.579,0,1.158c0,.1.013.091-.094.091h-3.847a.122.122,0,0,1-.075-.011q0-1.978,0-3.961A.058.058,0,0,1,514.618,94.853Z" transform="translate(-509.774 -90.006)" fill="#fff"/>
              <path id="Path_695" data-name="Path 695" d="M514.7,109.944h3.831c.11,0,.1-.012.1.1q0,1.126,0,2.252v.761c0,.153,0,.307,0,.46s0,.28,0,.42l-.021.025h0a.018.018,0,0,1-.021,0h0a.018.018,0,0,1-.021,0h0a.018.018,0,0,1-.021,0h0a.019.019,0,0,1-.021,0h0a.019.019,0,0,1-.021,0h0a.018.018,0,0,1-.021,0h0a.018.018,0,0,1-.021,0h0a.019.019,0,0,1-.021,0h0a.018.018,0,0,1-.021,0h0a.018.018,0,0,1-.021,0h0a.018.018,0,0,1-.022,0h0a.019.019,0,0,1-.021,0h0a.019.019,0,0,1-.021,0h0a.018.018,0,0,1-.021,0h0a.018.018,0,0,1-.021,0h0a.018.018,0,0,1-.021,0h0a.018.018,0,0,1-.021,0h0a.018.018,0,0,1-.021,0h0a.019.019,0,0,1-.021,0h0a.019.019,0,0,1-.021,0h0a.018.018,0,0,1-.021,0h0a.018.018,0,0,1-.021,0h0a.018.018,0,0,1-.021,0h0a.018.018,0,0,1-.021,0h0a.018.018,0,0,1-.021,0h0a.018.018,0,0,1-.021,0h0a.019.019,0,0,1-.021,0h0a.018.018,0,0,1-.022,0h0a.018.018,0,0,1-.021,0h0a.019.019,0,0,1-.021,0h0a.018.018,0,0,1-.021,0h0a.018.018,0,0,1-.022,0h0a.018.018,0,0,1-.021,0h0a.019.019,0,0,1-.021,0h0a.018.018,0,0,1-.021,0h0a.018.018,0,0,1-.021,0h0a.018.018,0,0,1-.021,0h0a.018.018,0,0,1-.021,0h0a.018.018,0,0,1-.021,0h0a.018.018,0,0,1-.021,0h0a.018.018,0,0,1-.021,0h0a.019.019,0,0,1-.021,0h0a.018.018,0,0,1-.021,0h0a.018.018,0,0,1-.021,0h0a.017.017,0,0,1-.021,0h0a.018.018,0,0,1-.021,0h0a.018.018,0,0,1-.021,0h0a.018.018,0,0,1-.021,0h0a.019.019,0,0,1-.021,0h0a.019.019,0,0,1-.021,0h0a.018.018,0,0,1-.021,0h0a.018.018,0,0,1-.021,0h0a.018.018,0,0,1-.021,0h0a.018.018,0,0,1-.021,0h0a.018.018,0,0,1-.021,0h0a.018.018,0,0,1-.022,0h0a.019.019,0,0,1-.021,0h0a.018.018,0,0,1-.021,0h0a.018.018,0,0,1-.021,0h0a.018.018,0,0,1-.021,0h0a.018.018,0,0,1-.021,0h0a.018.018,0,0,1-.022,0h0a.018.018,0,0,1-.021,0h0a.018.018,0,0,1-.022,0h0a.018.018,0,0,1-.021,0h0a.018.018,0,0,1-.021,0h0a.017.017,0,0,1-.021,0h0a.018.018,0,0,1-.021,0h0a.017.017,0,0,1-.021,0h0a.018.018,0,0,1-.021,0h0a.018.018,0,0,1-.021,0h0a.018.018,0,0,1-.021,0h0a.018.018,0,0,1-.021,0h0a.018.018,0,0,1-.021,0h0a.017.017,0,0,1-.021,0h0a.018.018,0,0,1-.021,0h0a.018.018,0,0,1-.021,0h0a.018.018,0,0,1-.021,0h0a.018.018,0,0,1-.021,0h0a.018.018,0,0,1-.021,0h0a.018.018,0,0,1-.021,0h0a.017.017,0,0,1-.021,0h0a.018.018,0,0,1-.021,0h0a.018.018,0,0,1-.021,0h0a.018.018,0,0,1-.021,0h0a.018.018,0,0,1-.021,0h0a.018.018,0,0,1-.022,0h0a.017.017,0,0,1-.021,0h0a.018.018,0,0,1-.021,0h0a.017.017,0,0,1-.021,0h0a.018.018,0,0,1-.021,0h0a.018.018,0,0,1-.021,0h0a.018.018,0,0,1-.022,0h0a.017.017,0,0,1-.021,0h0a.018.018,0,0,1-.021,0h0a.018.018,0,0,1-.021,0h0a.017.017,0,0,1-.021,0h0a.018.018,0,0,1-.021,0h0a.018.018,0,0,1-.021,0h0a.019.019,0,0,1-.021,0h0a.018.018,0,0,1-.022,0h0a.017.017,0,0,1-.021,0h0a.018.018,0,0,1-.021,0h0a.017.017,0,0,1-.021,0h0a.018.018,0,0,1-.021,0h0a.018.018,0,0,1-.021,0h0a.019.019,0,0,1-.021,0h0a.018.018,0,0,1-.021,0h0a.018.018,0,0,1-.021,0h0a.018.018,0,0,1-.021,0h0a.018.018,0,0,1-.021,0h0a.018.018,0,0,1-.022,0h0a.017.017,0,0,1-.021,0h0a.019.019,0,0,1-.021,0h0a.019.019,0,0,1-.021,0h0a.018.018,0,0,1-.021,0h0a.018.018,0,0,1-.021,0h0a.018.018,0,0,1-.021,0h0a.017.017,0,0,1-.021,0h0a.018.018,0,0,1-.022,0h0a.018.018,0,0,1-.021,0h0a.019.019,0,0,1-.021,0h0a.018.018,0,0,1-.021,0h0a.018.018,0,0,1-.021,0h0a.018.018,0,0,1-.021,0h0a.018.018,0,0,1-.022,0h0a.018.018,0,0,1-.021,0h0a.018.018,0,0,1-.021,0h0a.019.019,0,0,1-.021,0h0a.019.019,0,0,1-.021,0h0a.018.018,0,0,1-.021,0h0a.018.018,0,0,1-.021,0h0a.018.018,0,0,1-.021,0h0a.018.018,0,0,1-.021,0h0a.018.018,0,0,1-.021,0h0a.019.019,0,0,1-.021,0h0a.019.019,0,0,1-.021,0h0a.018.018,0,0,1-.021,0h0a.018.018,0,0,1-.021,0h0a.019.019,0,0,1-.021,0h0a.018.018,0,0,1-.021,0h0a.018.018,0,0,1-.021,0h0a.019.019,0,0,1-.021,0h0a.019.019,0,0,1-.021,0h0a.019.019,0,0,1-.021,0h0a.017.017,0,0,1-.021,0h0a.018.018,0,0,1-.021,0h0a.019.019,0,0,1-.021,0h0a.017.017,0,0,1-.021,0h0a.018.018,0,0,1-.021,0h0a.019.019,0,0,1-.021,0h0a.019.019,0,0,1-.022,0h0a.018.018,0,0,1-.021,0h0a.018.018,0,0,1-.021,0h0a.018.018,0,0,1-.021,0h0a.018.018,0,0,1-.021,0h0a.018.018,0,0,1-.021,0h0a.018.018,0,0,1-.021,0h0a.019.019,0,0,1-.021,0h0a.019.019,0,0,1-.021,0h0a.018.018,0,0,1-.021,0h0a.019.019,0,0,1-.021,0h0a.018.018,0,0,1-.021,0h0a.018.018,0,0,1-.021,0h0a.018.018,0,0,1-.021,0h0a.019.019,0,0,1-.021,0h0a.019.019,0,0,1-.021,0h0a.018.018,0,0,1-.021,0h0a.018.018,0,0,1-.021,0h0a.019.019,0,0,1-.021,0h0a.018.018,0,0,1-.021,0h0a.018.018,0,0,1-.021,0h0a.018.018,0,0,1-.022,0h0a.019.019,0,0,1-.022,0h0a.019.019,0,0,1-.021,0h0a.02.02,0,0,1-.022,0h-.023c-.022,0-.027-.007-.021-.026s0-.026,0-.04q0-1.931,0-3.862C514.608,109.935,514.6,109.944,514.7,109.944Z" transform="translate(-509.772 -100.288)" fill="#fff"/>
              <path id="Path_696" data-name="Path 696" d="M533.707,129.058c.038,0,.044-.008.046-.048,0-.021,0-.042,0-.063,0-.328,0-.656,0-.984,0-.28,0-.56-.005-.841,0-.016,0-.031,0-.047s0-.053,0-.079q0-.928,0-1.856c0-.107.007-.1-.1-.1h-3.838c-.087,0-.081-.01-.081.081q0,.9,0,1.8a.218.218,0,0,0,.005.078.194.194,0,0,0-.006.078q0,.944,0,1.888c0,.1,0,.091.09.091h3.887Zm-1.745-1.991-.005.013h0Zm.008,0-.008,0h0Z" transform="translate(-520.07 -110.568)" fill="#868e95"/>
              <path id="Path_697" data-name="Path 697" d="M527.14,122.481l.021-.025C527.167,122.475,527.162,122.485,527.14,122.481Z" transform="translate(-518.307 -108.809)" fill="#fff"/>
            </g>
            <path id="Path_698" data-name="Path 698" d="M543.2,87.215a11.047,11.047,0,1,0,11.047,11.047A11.047,11.047,0,0,0,543.2,87.215Zm0,17.184a6.137,6.137,0,1,1,6.137-6.137A6.137,6.137,0,0,1,543.2,104.4Z" transform="translate(-521.722 -77.932)" fill="#fff"/>
            <path id="Path_699" data-name="Path 699" d="M625.71,89.922a.919.919,0,0,1-.909-.909.909.909,0,1,1,1.818,0,.9.9,0,0,1-.909.909" transform="translate(-584.816 -78.537)" fill="#8f969d"/>
            <path id="Path_700" data-name="Path 700" d="M610.851,101.352a2.6,2.6,0,1,1,2.6-2.6,2.6,2.6,0,0,1-2.6,2.6" transform="translate(-573.545 -84.019)" fill="#75b435"/>
            <path id="Path_701" data-name="Path 701" d="M611.332,93.216a1.531,1.531,0,1,1,1.531-1.531,1.531,1.531,0,0,1-1.531,1.531" transform="translate(-574.601 -79.933)" fill="#6e7780"/>
            <path id="Path_702" data-name="Path 702" d="M615.86,118.571a.909.909,0,1,1,0-1.818.909.909,0,1,1,0,1.818" transform="translate(-578.108 -98.048)" fill="#8f969d"/>
            <path id="Path_703" data-name="Path 703" d="M604.539,100.778a.463.463,0,1,1,.463-.463.474.474,0,0,1-.463.463" transform="translate(-570.71 -86.538)" fill="#6e7780"/>
            <path id="Path_704" data-name="Path 704" d="M598.355,64.945a.784.784,0,1,1,.8-.77.793.793,0,0,1-.8.77" transform="translate(-566.263 -61.698)" fill="#6e7780"/>
            <path id="Path_705" data-name="Path 705" d="M596.7,107.294a.845.845,0,1,1,.846-.845.841.841,0,0,1-.846.845" transform="translate(-565.1 -90.454)" fill="#6e7780"/>
            <path id="Path_706" data-name="Path 706" d="M584.187,94.6a1.978,1.978,0,1,1,1.978-1.978,2,2,0,0,1-1.978,1.978" transform="translate(-555.811 -80.268)" fill="#92c157"/>
            <path id="Path_707" data-name="Path 707" d="M571.34,80.346a2.281,2.281,0,1,1,2.281-2.281,2.28,2.28,0,0,1-2.281,2.281" transform="translate(-546.855 -70.148)" fill="#75b435"/>
            <path id="Path_708" data-name="Path 708" d="M611.077,76.156a1.276,1.276,0,1,1,1.276-1.276,1.28,1.28,0,0,1-1.276,1.276" transform="translate(-574.601 -68.662)" fill="#75b334"/>
            <path id="Path_709" data-name="Path 709" d="M621.573,73a.622.622,0,1,1,0-1.244.622.622,0,0,1,.622.622.644.644,0,0,1-.622.622" transform="translate(-582.194 -67.402)" fill="#75b435"/>
            <path id="Path_710" data-name="Path 710" d="M640,67.3" transform="translate(-595.167 -64.372)" fill="#ffe200"/>
            <path id="Path_711" data-name="Path 711" d="M580.914,61.493A1.691,1.691,0,1,1,582.6,59.8a1.671,1.671,0,0,1-1.691,1.691" transform="translate(-553.776 -58.112)" fill="#75b334"/>
            <path id="Path_712" data-name="Path 712" d="M584.668,110.9a1.866,1.866,0,1,1-1.866,1.866,1.858,1.858,0,0,1,1.866-1.866" transform="translate(-556.214 -94.064)" fill="#8f969d"/>
            <path id="Path_713" data-name="Path 713" d="M596.982,78.754a2.281,2.281,0,1,1-2.281,2.281,2.28,2.28,0,0,1,2.281-2.281" transform="translate(-564.317 -72.17)" fill="#8f969d"/>
          </g>
        </g>
      </g>
    </g>
  </g>
</svg>
